<svg width="24" height="24" viewBox="0 0 24 24" fill="none" xmlns="http://www.w3.org/2000/svg">
<path d="M8.6625 12C7.7625 12 7.0125 11.6625 6.4125 10.9875C5.8125 10.3125 5.575 9.525 5.7 8.625L6.1875 4.95C6.3875 3.525 7.0375 2.34375 8.1375 1.40625C9.2375 0.46875 10.525 0 12 0C13.475 0 14.7625 0.46875 15.8625 1.40625C16.9625 2.34375 17.6125 3.525 17.8125 4.95L18.3 8.625C18.425 9.525 18.1875 10.3125 17.5875 10.9875C16.9875 11.6625 16.2375 12 15.3375 12H8.6625ZM0 21V19.8C0 18.95 0.21875 18.1687 0.65625 17.4562C1.09375 16.7437 1.675 16.2 2.4 15.825C3.95 15.05 5.525 14.4687 7.125 14.0812C8.725 13.6937 10.35 13.5 12 13.5C13.65 13.5 15.275 13.6937 16.875 14.0812C18.475 14.4687 20.05 15.05 21.6 15.825C22.325 16.2 22.9062 16.7437 23.3438 17.4562C23.7812 18.1687 24 18.95 24 19.8V21C24 21.825 23.7063 22.5313 23.1188 23.1188C22.5313 23.7063 21.825 24 21 24H3C2.175 24 1.46875 23.7063 0.88125 23.1188C0.29375 22.5313 0 21.825 0 21Z" fill="#424242"/>
</svg>
