<svg width="18" height="18" viewBox="0 0 18 18" fill="none" xmlns="http://www.w3.org/2000/svg">
<path d="M16.1549 17.0999C14.2799 17.0999 12.4274 16.6912 10.5974 15.8737C8.7674 15.0562 7.1024 13.8974 5.6024 12.3974C4.1024 10.8974 2.94365 9.2324 2.12615 7.4024C1.30865 5.5724 0.899902 3.7199 0.899902 1.8449C0.899902 1.5749 0.989902 1.3499 1.1699 1.1699C1.3499 0.989902 1.5749 0.899902 1.8449 0.899902H5.4899C5.6999 0.899902 5.8874 0.971152 6.0524 1.11365C6.2174 1.25615 6.3149 1.4249 6.3449 1.6199L6.9299 4.7699C6.9599 5.0099 6.9524 5.2124 6.9074 5.3774C6.8624 5.5424 6.7799 5.6849 6.6599 5.8049L4.4774 8.0099C4.7774 8.5649 5.13365 9.10115 5.54615 9.61865C5.95865 10.1362 6.4124 10.6349 6.9074 11.1149C7.3724 11.5799 7.8599 12.0112 8.3699 12.4087C8.8799 12.8062 9.4199 13.1699 9.9899 13.4999L12.1049 11.3849C12.2399 11.2499 12.4162 11.1487 12.6337 11.0812C12.8512 11.0137 13.0649 10.9949 13.2749 11.0249L16.3799 11.6549C16.5899 11.7149 16.7624 11.8237 16.8974 11.9812C17.0324 12.1387 17.0999 12.3149 17.0999 12.5099V16.1549C17.0999 16.4249 17.0099 16.6499 16.8299 16.8299C16.6499 17.0099 16.4249 17.0999 16.1549 17.0999ZM3.6224 6.2999L5.1074 4.8149L4.7249 2.6999H2.7224C2.7974 3.3149 2.9024 3.9224 3.0374 4.5224C3.1724 5.1224 3.3674 5.7149 3.6224 6.2999ZM11.6774 14.3549C12.2624 14.6099 12.8587 14.8124 13.4662 14.9624C14.0737 15.1124 14.6849 15.2099 15.2999 15.2549V13.2749L13.1849 12.8474L11.6774 14.3549Z" fill="white"/>
</svg>
