<svg width="16" height="16" viewBox="0 0 16 16" fill="none" xmlns="http://www.w3.org/2000/svg">
<mask id="mask0_614_1228" style="mask-type:alpha" maskUnits="userSpaceOnUse" x="0" y="0" width="16" height="16">
<rect width="16" height="16" fill="#D9D9D9"/>
</mask>
<g mask="url(#mask0_614_1228)">
<path d="M3.99998 11.9999L2.46665 13.5333C2.25554 13.7444 2.01387 13.7916 1.74165 13.6749C1.46942 13.5583 1.33331 13.3499 1.33331 13.0499V2.66659C1.33331 2.29992 1.46387 1.98603 1.72498 1.72492C1.98609 1.46381 2.29998 1.33325 2.66665 1.33325H13.3333C13.7 1.33325 14.0139 1.46381 14.275 1.72492C14.5361 1.98603 14.6666 2.29992 14.6666 2.66659V10.6666C14.6666 11.0333 14.5361 11.3471 14.275 11.6083C14.0139 11.8694 13.7 11.9999 13.3333 11.9999H3.99998ZM4.66665 9.33325H8.66665C8.85553 9.33325 9.01387 9.26936 9.14165 9.14159C9.26942 9.01381 9.33331 8.85547 9.33331 8.66658C9.33331 8.4777 9.26942 8.31936 9.14165 8.19159C9.01387 8.06381 8.85553 7.99992 8.66665 7.99992H4.66665C4.47776 7.99992 4.31942 8.06381 4.19165 8.19159C4.06387 8.31936 3.99998 8.4777 3.99998 8.66658C3.99998 8.85547 4.06387 9.01381 4.19165 9.14159C4.31942 9.26936 4.47776 9.33325 4.66665 9.33325ZM4.66665 7.33325H11.3333C11.5222 7.33325 11.6805 7.26936 11.8083 7.14159C11.9361 7.01381 12 6.85547 12 6.66658C12 6.4777 11.9361 6.31936 11.8083 6.19159C11.6805 6.06381 11.5222 5.99992 11.3333 5.99992H4.66665C4.47776 5.99992 4.31942 6.06381 4.19165 6.19159C4.06387 6.31936 3.99998 6.4777 3.99998 6.66658C3.99998 6.85547 4.06387 7.01381 4.19165 7.14159C4.31942 7.26936 4.47776 7.33325 4.66665 7.33325ZM4.66665 5.33325H11.3333C11.5222 5.33325 11.6805 5.26936 11.8083 5.14159C11.9361 5.01381 12 4.85547 12 4.66658C12 4.4777 11.9361 4.31936 11.8083 4.19159C11.6805 4.06381 11.5222 3.99992 11.3333 3.99992H4.66665C4.47776 3.99992 4.31942 4.06381 4.19165 4.19159C4.06387 4.31936 3.99998 4.4777 3.99998 4.66658C3.99998 4.85547 4.06387 5.01381 4.19165 5.14159C4.31942 5.26936 4.47776 5.33325 4.66665 5.33325Z" fill="#757575"/>
</g>
</svg>
