<svg width="16" height="16" viewBox="0 0 16 16" fill="none" xmlns="http://www.w3.org/2000/svg">
<mask id="mask0_736_2148" style="mask-type:alpha" maskUnits="userSpaceOnUse" x="0" y="0" width="16" height="16">
<rect width="16" height="16" fill="#D9D9D9"/>
</mask>
<g mask="url(#mask0_736_2148)">
<path d="M3.99992 11.9999L2.46659 13.5333C2.25547 13.7444 2.01381 13.7916 1.74159 13.6749C1.46936 13.5583 1.33325 13.3499 1.33325 13.0499V2.66659C1.33325 2.29992 1.46381 1.98603 1.72492 1.72492C1.98603 1.46381 2.29992 1.33325 2.66659 1.33325H13.3333C13.6999 1.33325 14.0138 1.46381 14.2749 1.72492C14.536 1.98603 14.6666 2.29992 14.6666 2.66659V10.6666C14.6666 11.0333 14.536 11.3471 14.2749 11.6083C14.0138 11.8694 13.6999 11.9999 13.3333 11.9999H3.99992ZM7.33325 7.33325V8.66658C7.33325 8.85547 7.39714 9.01381 7.52492 9.14159C7.6527 9.26936 7.81103 9.33325 7.99992 9.33325C8.18881 9.33325 8.34714 9.26936 8.47492 9.14159C8.6027 9.01381 8.66658 8.85547 8.66658 8.66658V7.33325H9.99992C10.1888 7.33325 10.3471 7.26936 10.4749 7.14159C10.6027 7.01381 10.6666 6.85547 10.6666 6.66658C10.6666 6.4777 10.6027 6.31936 10.4749 6.19159C10.3471 6.06381 10.1888 5.99992 9.99992 5.99992H8.66658V4.66658C8.66658 4.4777 8.6027 4.31936 8.47492 4.19159C8.34714 4.06381 8.18881 3.99992 7.99992 3.99992C7.81103 3.99992 7.6527 4.06381 7.52492 4.19159C7.39714 4.31936 7.33325 4.4777 7.33325 4.66658V5.99992H5.99992C5.81103 5.99992 5.6527 6.06381 5.52492 6.19159C5.39714 6.31936 5.33325 6.4777 5.33325 6.66658C5.33325 6.85547 5.39714 7.01381 5.52492 7.14159C5.6527 7.26936 5.81103 7.33325 5.99992 7.33325H7.33325Z" fill="#757575"/>
</g>
</svg>
