<svg width="341" height="341" viewBox="0 0 341 341" fill="none" xmlns="http://www.w3.org/2000/svg">
<path d="M273.414 82.2425C258.594 63.6853 238.352 52.5142 213.05 57.3632C188.048 62.1372 170.875 85.5093 148.001 95.712C123.66 106.569 96.1074 100.582 70.8052 107.142C52.9232 111.78 38.608 125.713 32.054 145.539C19.2187 184.311 29.9261 230.339 58.9453 255.75C77.0455 271.579 100.486 277.711 122.644 273.318C139.66 269.908 155.571 261.261 172.587 257.557C202.145 251.119 233.189 260.715 262.284 250.09C293.076 238.837 303.094 205.923 302.897 172.846C302.719 142.75 292.626 106.29 273.414 82.2425Z" fill="#FF9800"/>
<path opacity="0.8" d="M273.414 82.2425C258.594 63.6853 238.352 52.5142 213.05 57.3632C188.048 62.1372 170.875 85.5093 148.001 95.712C123.66 106.569 96.1074 100.582 70.8052 107.142C52.9232 111.78 38.608 125.713 32.054 145.539C19.2187 184.311 29.9261 230.339 58.9453 255.75C77.0455 271.579 100.486 277.711 122.644 273.318C139.66 269.908 155.571 261.261 172.587 257.557C202.145 251.119 233.189 260.715 262.284 250.09C293.076 238.837 303.094 205.923 302.897 172.846C302.719 142.75 292.626 106.29 273.414 82.2425Z" fill="white"/>
<path d="M183.84 102.927H37.244V140.874H183.84V102.927Z" stroke="#263238" stroke-width="0.779751" stroke-linecap="round" stroke-linejoin="round"/>
<path d="M183.833 102.9H37.244L51.9002 78.4636H169.177L183.833 102.9Z" stroke="#263238" stroke-width="0.779751" stroke-linecap="round" stroke-linejoin="round"/>
<path d="M51.9002 78.4638V51.4634" stroke="#263238" stroke-width="0.779751" stroke-linecap="round" stroke-linejoin="round"/>
<path d="M169.873 78.4638V51.4634" stroke="#263238" stroke-width="0.779751" stroke-linecap="round" stroke-linejoin="round"/>
<path d="M287.845 100.752L288.691 69.216C288.714 68.4259 289.043 67.6759 289.61 67.1246C290.176 66.5734 290.935 66.2644 291.726 66.2629C292.516 66.2627 293.275 66.5714 293.841 67.1232C294.406 67.6749 294.734 68.426 294.754 69.216L295.599 100.936" stroke="#263238" stroke-width="0.779751" stroke-linecap="round" stroke-linejoin="round"/>
<path d="M288.691 69.216L288.486 76.7589H294.951L294.747 69.216C294.71 68.4369 294.374 67.7019 293.81 67.1636C293.245 66.6253 292.495 66.325 291.715 66.325C290.935 66.325 290.185 66.6253 289.621 67.1636C289.056 67.7019 288.721 68.4369 288.684 69.216H288.691Z" stroke="#263238" stroke-width="0.779751" stroke-linecap="round" stroke-linejoin="round"/>
<path d="M300.02 141.991C311.004 137.348 316.145 124.681 311.503 113.696C306.861 102.712 294.193 97.5707 283.209 102.213C272.224 106.855 267.083 119.523 271.725 130.507C276.367 141.492 289.035 146.633 300.02 141.991Z" stroke="#263238" stroke-width="0.779751" stroke-linecap="round" stroke-linejoin="round"/>
<path d="M308.096 125.974C310.223 116.878 304.573 107.78 295.477 105.653C286.382 103.527 277.284 109.176 275.157 118.272C273.031 127.368 278.68 136.465 287.776 138.592C296.872 140.719 305.969 135.069 308.096 125.974Z" stroke="#263238" stroke-width="0.779751" stroke-linecap="round" stroke-linejoin="round"/>
<path d="M291.698 69.8641C292.003 69.8641 292.251 69.6168 292.251 69.3117C292.251 69.0066 292.003 68.7593 291.698 68.7593C291.393 68.7593 291.146 69.0066 291.146 69.3117C291.146 69.6168 291.393 69.8641 291.698 69.8641Z" stroke="#263238" stroke-width="0.779751" stroke-linecap="round" stroke-linejoin="round"/>
<path d="M246.4 96.5847L247.136 68.8819C247.156 68.1877 247.445 67.5286 247.943 67.0446C248.441 66.5606 249.109 66.29 249.803 66.2903C250.498 66.2918 251.165 66.5639 251.663 67.049C252.161 67.5341 252.45 68.1939 252.47 68.8887L253.213 96.7825" stroke="#263238" stroke-width="0.779751" stroke-linecap="round" stroke-linejoin="round"/>
<path d="M247.136 68.8815L246.959 75.5173H252.647L252.47 68.8883C252.47 68.1811 252.189 67.5028 251.689 67.0027C251.188 66.5026 250.51 66.2217 249.803 66.2217C249.096 66.2217 248.417 66.5026 247.917 67.0027C247.417 67.5028 247.136 68.1811 247.136 68.8883V68.8815Z" stroke="#263238" stroke-width="0.779751" stroke-linecap="round" stroke-linejoin="round"/>
<path d="M263.131 128.791C270.543 121.378 270.543 109.361 263.131 101.949C255.719 94.5365 243.702 94.5365 236.289 101.949C228.877 109.361 228.877 121.378 236.289 128.791C243.702 136.203 255.719 136.203 263.131 128.791Z" stroke="#263238" stroke-width="0.779751" stroke-linecap="round" stroke-linejoin="round"/>
<path d="M259.834 126.288C265.854 120.699 266.204 111.287 260.615 105.267C255.027 99.246 245.615 98.8959 239.594 104.485C233.574 110.074 233.224 119.485 238.813 125.506C244.401 131.527 253.813 131.877 259.834 126.288Z" stroke="#263238" stroke-width="0.779751" stroke-linecap="round" stroke-linejoin="round"/>
<path d="M249.782 69.4342C250.054 69.4342 250.274 69.2144 250.274 68.9432C250.274 68.672 250.054 68.4521 249.782 68.4521C249.511 68.4521 249.291 68.672 249.291 68.9432C249.291 69.2144 249.511 69.4342 249.782 69.4342Z" stroke="#263238" stroke-width="0.779751" stroke-linecap="round" stroke-linejoin="round"/>
<path d="M210.226 93.1067L210.908 68.5547C210.924 67.9395 211.18 67.355 211.621 66.9257C212.062 66.4963 212.653 66.2561 213.268 66.2563C213.884 66.2561 214.475 66.4963 214.915 66.9257C215.356 67.355 215.612 67.9395 215.628 68.5547L216.31 93.2567" stroke="#263238" stroke-width="0.779751" stroke-linecap="round" stroke-linejoin="round"/>
<path d="M210.881 68.5614L210.724 74.4334H215.757L215.601 68.5614C215.601 67.9355 215.352 67.3353 214.909 66.8928C214.467 66.4503 213.867 66.2017 213.241 66.2017C212.615 66.2017 212.015 66.4503 211.572 66.8928C211.13 67.3353 210.881 67.9355 210.881 68.5614Z" stroke="#263238" stroke-width="0.779751" stroke-linecap="round" stroke-linejoin="round"/>
<path d="M213.152 126.545C222.433 126.545 229.957 119.021 229.957 109.74C229.957 100.459 222.433 92.9355 213.152 92.9355C203.871 92.9355 196.348 100.459 196.348 109.74C196.348 119.021 203.871 126.545 213.152 126.545Z" stroke="#263238" stroke-width="0.779751" stroke-linecap="round" stroke-linejoin="round"/>
<path d="M213.152 122.91C220.426 122.91 226.322 117.013 226.322 109.74C226.322 102.467 220.426 96.5708 213.152 96.5708C205.879 96.5708 199.983 102.467 199.983 109.74C199.983 117.013 205.879 122.91 213.152 122.91Z" stroke="#263238" stroke-width="0.779751" stroke-linecap="round" stroke-linejoin="round"/>
<path d="M213.65 68.636C213.65 68.522 213.605 68.4127 213.524 68.3321C213.444 68.2516 213.334 68.2063 213.22 68.2063C213.107 68.2063 212.997 68.2516 212.917 68.3321C212.836 68.4127 212.791 68.522 212.791 68.636C212.791 68.7499 212.836 68.8592 212.917 68.9398C212.997 69.0204 213.107 69.0656 213.22 69.0656C213.334 69.0656 213.444 69.0204 213.524 68.9398C213.605 68.8592 213.65 68.7499 213.65 68.636Z" stroke="#263238" stroke-width="0.779751" stroke-linecap="round" stroke-linejoin="round"/>
<path d="M36.3097 251.071H283.855" stroke="#263238" stroke-width="0.779751" stroke-linecap="round" stroke-linejoin="round"/>
<path d="M36.3097 233.728H283.855" stroke="#263238" stroke-width="0.779751" stroke-linecap="round" stroke-linejoin="round"/>
<path d="M97.4169 134.709C97.4169 134.709 93.85 145.989 93.6591 150.872C93.4681 155.755 100.425 162.316 104.346 166.095C108.268 169.873 115.258 171.551 125.017 171.169C134.777 170.787 143.247 166.286 143.247 166.286C143.247 166.286 143.063 196.164 143.247 203.114C143.431 210.063 144.004 283.364 144.004 283.364H210.533C210.533 283.364 208.842 214.578 209.401 206.496C209.961 198.415 213.541 174.926 213.541 174.926C213.541 174.926 238.536 186.575 244.17 186.575C249.803 186.575 263.341 171.571 262.781 167.595C262.222 163.619 242.669 152.182 235.904 146.542C229.138 140.901 226.506 135.459 221.807 133.202C217.108 130.944 195.891 126.245 191.171 125.7C186.452 125.154 160.918 126.634 153.961 127.009C147.005 127.384 135.357 139.231 132.54 141.297C130.37 142.814 128.109 144.194 125.768 145.43C125.768 145.43 126.9 144.114 125.017 143.739C124.091 143.531 123.149 143.406 122.201 143.364C122.201 143.364 121.26 132.452 120.509 131.333C119.759 130.215 108.67 127.575 104.537 127.923C100.404 128.271 97.4169 134.709 97.4169 134.709Z" fill="white"/>
<mask id="mask0_677_2040" style="mask-type:luminance" maskUnits="userSpaceOnUse" x="93" y="125" width="170" height="159">
<path d="M97.4169 134.708C97.4169 134.708 93.85 145.988 93.6591 150.872C93.4681 155.755 100.425 162.316 104.346 166.094C108.268 169.872 115.258 171.55 125.017 171.168C134.777 170.786 143.247 166.285 143.247 166.285C143.247 166.285 143.063 196.163 143.247 203.113C143.431 210.062 144.004 283.364 144.004 283.364H210.533C210.533 283.364 208.842 214.577 209.401 206.496C209.961 198.414 213.541 174.926 213.541 174.926C213.541 174.926 238.536 186.574 244.17 186.574C249.803 186.574 263.341 171.57 262.781 167.594C262.222 163.618 242.669 152.181 235.904 146.541C229.138 140.901 226.506 135.458 221.807 133.201C217.108 130.944 195.891 126.245 191.171 125.699C186.452 125.153 160.918 126.633 153.962 127.008C147.005 127.384 135.357 139.23 132.54 141.296C130.37 142.813 128.109 144.193 125.768 145.429C125.768 145.429 126.9 144.113 125.017 143.738C124.091 143.531 123.149 143.405 122.201 143.363C122.201 143.363 121.26 132.451 120.509 131.332C119.759 130.214 108.67 127.574 104.537 127.922C100.404 128.27 97.4169 134.708 97.4169 134.708Z" fill="white"/>
</mask>
<g mask="url(#mask0_677_2040)">
<path d="M261.342 171.571C262.359 169.893 262.931 168.474 262.809 167.602C262.243 163.653 242.697 152.188 235.931 146.548C229.166 140.908 226.533 135.466 221.834 133.208C217.135 130.951 195.918 126.252 191.199 125.706C188.701 125.547 186.197 125.522 183.697 125.631C189.255 131.36 174.012 141.679 177.279 141.952C180.546 142.224 195.209 139.994 203.611 136.352C203.611 136.352 213.698 136.066 222.107 141.126C229.261 145.382 247.709 160.57 261.342 171.571Z" fill="#FF9800"/>
<path d="M228.286 181.412C228.286 181.412 220.722 173.848 219.884 171.864C219.045 169.879 224.658 148.335 221.561 153.654C219.746 156.758 218.614 160.213 218.24 163.789C218.24 163.789 214.591 149.781 214.312 153.143C214.032 156.505 214.032 164.914 214.032 164.914C214.032 164.914 200.869 149.781 203.12 156.505C205.371 163.23 207.894 171.073 207.894 171.073L189.91 298.545L197.473 296.022L214.278 176.399L228.286 181.412Z" fill="#FF9800"/>
<path d="M143.404 172.757C143.404 172.757 143.684 142.749 142.838 144.182C141.992 145.614 141.16 152.025 141.16 152.025C141.16 152.025 136.959 142.217 136.386 145.58C135.813 148.942 137.225 156.226 137.225 156.226C137.225 156.226 132.178 158.19 118.457 160.427C104.735 162.664 107.545 160.427 115.654 156.505C123.763 152.584 129.976 143.622 129.976 139.414C129.976 135.206 127.173 123.401 118.491 121.744C109.809 120.086 91.5926 137.177 90.1945 140.54C88.7964 143.902 100.82 139.128 100.82 139.128C100.82 139.128 102.498 146.978 103.057 149.494C103.616 152.011 99.9812 156.219 99.6947 157.337C99.4083 158.456 106.419 155.939 105.833 156.778C105.246 157.617 98.549 162.916 99.9539 165.467C101.359 168.017 112.864 172.478 123.231 173.91C129.972 174.678 136.794 174.288 143.404 172.757Z" fill="#FF9800"/>
<path opacity="0.5" d="M143.404 172.757C143.404 172.757 143.684 142.749 142.838 144.182C141.992 145.614 141.16 152.025 141.16 152.025C141.16 152.025 136.959 142.217 136.386 145.58C135.813 148.942 137.225 156.226 137.225 156.226C137.225 156.226 132.178 158.19 118.457 160.427C104.735 162.664 107.545 160.427 115.654 156.505C123.763 152.584 129.976 143.622 129.976 139.414C129.976 135.206 127.173 123.401 118.491 121.744C109.809 120.086 91.5926 137.177 90.1945 140.54C88.7964 143.902 100.82 139.128 100.82 139.128C100.82 139.128 102.498 146.978 103.057 149.494C103.616 152.011 99.9812 156.219 99.6947 157.337C99.4083 158.456 106.419 155.939 105.833 156.778C105.246 157.617 98.549 162.916 99.9539 165.467C101.359 168.017 112.864 172.478 123.231 173.91C129.972 174.678 136.794 174.288 143.404 172.757Z" fill="white"/>
<path opacity="0.5" d="M228.286 181.412C228.286 181.412 220.722 173.848 219.884 171.864C219.045 169.879 224.658 148.335 221.561 153.654C219.746 156.758 218.614 160.213 218.24 163.789C218.24 163.789 214.591 149.781 214.312 153.143C214.032 156.505 214.032 164.914 214.032 164.914C214.032 164.914 200.869 149.781 203.12 156.505C205.371 163.23 207.894 171.073 207.894 171.073L189.91 298.545L197.473 296.022L214.278 176.399L228.286 181.412Z" fill="white"/>
<path d="M144.025 283.371H210.561C210.561 283.371 210.036 262.16 209.667 241.919L143.65 237.513C143.841 259.357 144.025 283.371 144.025 283.371Z" fill="#263238"/>
<path opacity="0.5" d="M261.342 171.571C262.359 169.893 262.931 168.474 262.809 167.602C262.243 163.653 242.697 152.188 235.931 146.548C229.166 140.908 226.533 135.466 221.834 133.208C217.135 130.951 195.918 126.252 191.199 125.706C188.701 125.547 186.197 125.522 183.697 125.631C189.255 131.36 174.012 141.679 177.279 141.952C180.546 142.224 195.209 139.994 203.611 136.352C203.611 136.352 213.698 136.066 222.107 141.126C229.261 145.382 247.709 160.57 261.342 171.571Z" fill="white"/>
</g>
<path d="M97.4169 134.709C97.4169 134.709 93.85 145.989 93.6591 150.872C93.4681 155.755 100.425 162.316 104.346 166.095C108.268 169.873 115.258 171.551 125.017 171.169C134.777 170.787 143.247 166.286 143.247 166.286C143.247 166.286 143.063 196.164 143.247 203.114C143.431 210.063 144.004 283.364 144.004 283.364H210.533C210.533 283.364 208.842 214.578 209.401 206.496C209.961 198.415 213.541 174.926 213.541 174.926C213.541 174.926 238.536 186.575 244.17 186.575C249.803 186.575 263.341 171.571 262.781 167.595C262.222 163.619 242.669 152.182 235.904 146.542C229.138 140.901 226.506 135.459 221.807 133.202C217.108 130.944 195.891 126.245 191.171 125.7C186.452 125.154 160.918 126.634 153.961 127.009C147.005 127.384 135.357 139.231 132.54 141.297C130.37 142.814 128.109 144.194 125.768 145.43C125.768 145.43 126.9 144.114 125.017 143.739C124.091 143.531 123.149 143.406 122.201 143.364C122.201 143.364 121.26 132.452 120.509 131.333C119.759 130.215 108.67 127.575 104.537 127.923C100.404 128.271 97.4169 134.709 97.4169 134.709Z" stroke="#263238" stroke-width="0.779751" stroke-linecap="round" stroke-linejoin="round"/>
<path d="M143.65 148.805L143.275 166.285L138.391 147.114" stroke="#263238" stroke-width="0.779751" stroke-linecap="round" stroke-linejoin="round"/>
<path d="M122.228 143.356C122.228 143.356 114.897 152.938 109.802 153.879" stroke="#263238" stroke-width="0.779751" stroke-linecap="round" stroke-linejoin="round"/>
<path d="M125.795 145.423C125.795 145.423 123.353 150.313 120.721 150.879" stroke="#263238" stroke-width="0.779751" stroke-linecap="round" stroke-linejoin="round"/>
<path d="M216.76 163.087L213.568 174.933L211.686 162.903" stroke="#263238" stroke-width="0.779751" stroke-linecap="round" stroke-linejoin="round"/>
<path d="M174.101 141.098L167.52 146.548L161.88 282.429" stroke="#263238" stroke-width="0.779751" stroke-linecap="round" stroke-linejoin="round"/>
<path d="M170.5 157.167C170.5 157.408 170.428 157.644 170.294 157.845C170.16 158.046 169.969 158.202 169.746 158.295C169.523 158.387 169.278 158.411 169.041 158.364C168.804 158.317 168.587 158.201 168.416 158.03C168.245 157.859 168.129 157.642 168.082 157.405C168.035 157.168 168.059 156.923 168.151 156.7C168.244 156.477 168.4 156.286 168.601 156.152C168.802 156.018 169.038 155.946 169.279 155.946C169.602 155.948 169.912 156.077 170.14 156.306C170.369 156.534 170.498 156.844 170.5 157.167Z" fill="#263238"/>
<path d="M184.058 157.167C184.058 157.408 183.987 157.644 183.852 157.845C183.718 158.046 183.528 158.202 183.305 158.295C183.081 158.387 182.836 158.411 182.599 158.364C182.362 158.317 182.145 158.201 181.974 158.03C181.803 157.859 181.687 157.642 181.64 157.405C181.593 157.168 181.617 156.923 181.71 156.7C181.802 156.477 181.958 156.286 182.159 156.152C182.36 156.018 182.596 155.946 182.837 155.946C183.161 155.948 183.47 156.077 183.699 156.306C183.927 156.534 184.056 156.844 184.058 157.167Z" fill="#263238"/>
<path d="M170.057 180.73C170.057 180.971 169.985 181.207 169.851 181.408C169.717 181.609 169.526 181.765 169.303 181.858C169.08 181.95 168.835 181.974 168.598 181.927C168.361 181.88 168.143 181.764 167.973 181.593C167.802 181.422 167.686 181.205 167.639 180.968C167.591 180.731 167.616 180.486 167.708 180.263C167.8 180.04 167.957 179.849 168.158 179.715C168.358 179.581 168.594 179.509 168.836 179.509C169.16 179.509 169.47 179.638 169.699 179.867C169.928 180.096 170.057 180.406 170.057 180.73Z" fill="#263238"/>
<path d="M183.588 180.73C183.588 180.971 183.516 181.207 183.382 181.408C183.248 181.609 183.057 181.765 182.834 181.858C182.611 181.95 182.365 181.974 182.129 181.927C181.892 181.88 181.674 181.764 181.504 181.593C181.333 181.422 181.217 181.205 181.169 180.968C181.122 180.731 181.147 180.486 181.239 180.263C181.331 180.04 181.488 179.849 181.689 179.715C181.889 179.581 182.125 179.509 182.367 179.509C182.527 179.509 182.686 179.541 182.834 179.602C182.982 179.663 183.117 179.753 183.23 179.867C183.343 179.98 183.433 180.115 183.495 180.263C183.556 180.411 183.588 180.57 183.588 180.73Z" fill="#263238"/>
<path d="M169.586 207.444C169.586 207.686 169.515 207.922 169.38 208.122C169.246 208.323 169.056 208.48 168.833 208.572C168.609 208.664 168.364 208.689 168.127 208.641C167.89 208.594 167.673 208.478 167.502 208.307C167.331 208.137 167.215 207.919 167.168 207.682C167.121 207.446 167.145 207.2 167.237 206.977C167.33 206.754 167.486 206.563 167.687 206.429C167.888 206.295 168.124 206.223 168.365 206.223C168.689 206.223 169 206.352 169.229 206.581C169.458 206.81 169.586 207.12 169.586 207.444Z" fill="#263238"/>
<path d="M183.117 207.444C183.117 207.686 183.045 207.922 182.911 208.122C182.777 208.323 182.586 208.48 182.363 208.572C182.14 208.664 181.895 208.689 181.658 208.641C181.421 208.594 181.204 208.478 181.033 208.307C180.862 208.137 180.746 207.919 180.699 207.682C180.652 207.446 180.676 207.2 180.768 206.977C180.861 206.754 181.017 206.563 181.218 206.429C181.419 206.295 181.655 206.223 181.896 206.223C182.057 206.223 182.215 206.255 182.363 206.316C182.511 206.378 182.646 206.468 182.759 206.581C182.873 206.694 182.963 206.829 183.024 206.977C183.085 207.125 183.117 207.284 183.117 207.444Z" fill="#263238"/>
<path d="M111.705 114.228C111.705 114.228 106.815 114.228 105.123 114.787C103.432 115.347 97.2327 126.818 95.5755 130.951C94.5512 133.645 94.1638 136.539 94.4434 139.407L103.466 135.084L106.099 147.114C106.099 147.114 120.38 135.841 122.262 132.11C124.144 128.38 119.821 117.822 119.821 117.822L111.705 114.228Z" fill="#263238" stroke="#263238" stroke-width="0.779751" stroke-linecap="round" stroke-linejoin="round"/>
<path d="M174.476 121.744C174.476 121.744 165.453 124.185 164.512 128.7C163.571 133.215 171.277 140.349 172.785 141.658C174.292 142.968 188.191 140.151 194.397 138.651C200.603 137.15 208.869 133.195 208.678 130.003C208.487 126.811 204.73 125.495 203.604 122.862C202.479 120.23 201.722 118.729 198.339 118.354C194.967 118.024 191.574 117.961 188.191 118.163C186.868 118.361 174.476 121.744 174.476 121.744Z" fill="#263238" stroke="#263238" stroke-width="0.779751" stroke-linecap="round" stroke-linejoin="round"/>
<path d="M174.101 141.099C174.101 141.099 173.16 139.223 169.586 139.407C166.012 139.592 163.196 143.54 163.196 143.54C163.196 143.54 170.152 145.048 174.101 141.099Z" fill="#263238" stroke="#263238" stroke-width="0.779751" stroke-linecap="round" stroke-linejoin="round"/>
<path d="M174.101 141.099C174.101 141.099 175.601 138.282 178.609 141.29C181.617 144.297 183.492 149.358 183.492 149.358C183.492 149.358 179.55 151.049 175.792 147.1C172.035 143.152 174.101 141.099 174.101 141.099Z" fill="#263238" stroke="#263238" stroke-width="0.779751" stroke-linecap="round" stroke-linejoin="round"/>
<path d="M203.236 125.126C203.236 125.126 203.427 128.7 196.655 132.267C191.818 134.711 186.802 136.783 181.651 138.466" stroke="white" stroke-width="0.779751" stroke-linecap="round" stroke-linejoin="round"/>
<path d="M191.792 129.866C191.792 129.866 196.839 126.627 197.589 124.41C198.339 122.194 196.089 121 196.089 121" stroke="white" stroke-width="0.779751" stroke-linecap="round" stroke-linejoin="round"/>
<path d="M174.476 140.349C174.476 140.349 169.961 134.893 169.961 130.801C169.961 126.709 171.653 126.102 171.653 126.102" stroke="white" stroke-width="0.779751" stroke-linecap="round" stroke-linejoin="round"/>
<path d="M174.728 78.2799C173.074 76.3131 171.659 74.1565 170.514 71.8554C168.911 68.4454 166.701 62.8257 170.916 59.4157C175.131 56.0057 191.376 53.7961 199.219 54.7986C207.062 55.8011 213.671 63.8283 219.89 75.0676C226.11 86.307 228.122 94.9411 226.71 98.7535C225.299 102.566 219.686 106.781 213.07 106.583C206.455 106.385 202.636 99.3537 198.823 95.7459C195.011 92.1381 183.137 84.7043 181.562 83.0948C179.706 81.4526 177.762 79.9135 175.738 78.4845L174.728 78.2799Z" fill="white"/>
<mask id="mask1_677_2040" style="mask-type:luminance" maskUnits="userSpaceOnUse" x="168" y="54" width="60" height="53">
<path d="M174.728 78.2799C173.074 76.3131 171.659 74.1565 170.514 71.8554C168.911 68.4454 166.701 62.8257 170.916 59.4157C175.131 56.0057 191.376 53.7961 199.219 54.7986C207.062 55.8011 213.671 63.8283 219.89 75.0676C226.11 86.307 228.122 94.9411 226.71 98.7535C225.299 102.566 219.686 106.781 213.07 106.583C206.455 106.385 202.636 99.3537 198.823 95.7459C195.011 92.1381 183.137 84.7043 181.562 83.0948C179.706 81.4526 177.762 79.9135 175.738 78.4845L174.728 78.2799Z" fill="white"/>
</mask>
<g mask="url(#mask1_677_2040)">
<path d="M204.17 56.4351C207.239 60.1724 214.462 69.6249 215.123 76.6632C215.962 85.6247 198.871 81.1439 198.871 81.1439C198.871 81.1439 210.076 74.4194 206.714 75.2583C203.352 76.0971 200.576 74.1398 195.509 74.1398C190.442 74.1398 184.024 67.4153 184.024 69.659C184.024 71.9028 184.583 72.4621 185.988 74.433C187.393 76.404 184.583 74.433 191.308 83.981C193.354 86.9068 194.936 90.3373 196.484 93.8223C197.412 94.5452 198.216 95.1863 198.817 95.7796C202.629 99.3874 206.441 106.412 213.064 106.617C219.686 106.821 225.34 102.6 226.704 98.7873C228.068 94.9749 226.097 86.3408 219.884 75.1014C215.021 66.2763 209.913 59.47 204.17 56.4351Z" fill="#FF9800"/>
<path opacity="0.5" d="M204.17 56.4351C207.239 60.1724 214.462 69.6249 215.123 76.6632C215.962 85.6247 198.871 81.1439 198.871 81.1439C198.871 81.1439 210.076 74.4194 206.714 75.2583C203.352 76.0971 200.576 74.1398 195.509 74.1398C190.442 74.1398 184.024 67.4153 184.024 69.659C184.024 71.9028 184.583 72.4621 185.988 74.433C187.393 76.404 184.583 74.433 191.308 83.981C193.354 86.9068 194.936 90.3373 196.484 93.8223C197.412 94.5452 198.216 95.1863 198.817 95.7796C202.629 99.3874 206.441 106.412 213.064 106.617C219.686 106.821 225.34 102.6 226.704 98.7873C228.068 94.9749 226.097 86.3408 219.884 75.1014C215.021 66.2763 209.913 59.47 204.17 56.4351Z" fill="white"/>
</g>
<path d="M174.728 78.2799C173.074 76.3131 171.659 74.1565 170.514 71.8554C168.911 68.4454 166.701 62.8257 170.916 59.4157C175.131 56.0057 191.376 53.7961 199.219 54.7986C207.062 55.8011 213.671 63.8283 219.89 75.0676C226.11 86.307 228.122 94.9411 226.71 98.7535C225.299 102.566 219.686 106.781 213.07 106.583C206.455 106.385 202.636 99.3537 198.823 95.7459C195.011 92.1381 183.137 84.7043 181.562 83.0948C179.706 81.4526 177.762 79.9135 175.738 78.4845L174.728 78.2799Z" stroke="#263238" stroke-width="0.779751" stroke-linecap="round" stroke-linejoin="round"/>
<path d="M180.73 71.3101C180.73 71.3101 178.739 70.2053 175.417 65.9973" stroke="#263238" stroke-width="0.779751" stroke-linecap="round" stroke-linejoin="round"/>
<path d="M182.544 64.6945C182.445 64.1019 182.427 63.4985 182.49 62.9009" stroke="#263238" stroke-width="0.779751" stroke-linecap="round" stroke-linejoin="round"/>
<path d="M185.811 72.1969C184.687 70.4793 183.771 68.634 183.083 66.7" stroke="#263238" stroke-width="0.779751" stroke-linecap="round" stroke-linejoin="round"/>
<path d="M201.974 81.0559C201.974 81.0559 207.512 82.1607 212.382 81.281" stroke="#263238" stroke-width="0.779751" stroke-linecap="round" stroke-linejoin="round"/>
<path d="M219.031 91.4358C219.536 91.4358 220.054 91.4358 220.572 91.4358" stroke="#263238" stroke-width="0.779751" stroke-linecap="round" stroke-linejoin="round"/>
<path d="M209.722 90.1331C211.981 90.6991 214.282 91.0822 216.603 91.2788" stroke="#263238" stroke-width="0.779751" stroke-linecap="round" stroke-linejoin="round"/>
<path d="M208.651 94.3342C208.651 94.3342 214.155 100.322 218.138 101.427" stroke="#263238" stroke-width="0.779751" stroke-linecap="round" stroke-linejoin="round"/>
<path d="M204.436 97.5259C204.436 96.9257 201.422 89.9011 196.205 84.8816C190.987 79.8621 180.948 78.6618 177.538 78.8596C174.128 79.0573 172.519 80.6669 172.519 80.6669C172.519 80.6669 168.911 93.9181 167.104 98.5353C165.667 102.511 165.614 106.856 166.954 110.866C168.203 114.432 169.869 117.839 171.919 121.014C174.933 125.829 174.933 139.08 174.933 139.08C174.933 139.08 189.985 132.26 191.792 129.846C193.599 127.432 192.59 119.009 193.395 114.992C193.56 114.173 193.802 113.371 194.118 112.598C195.092 111.535 195.868 110.306 196.409 108.97C196.409 108.97 204.436 98.1533 204.436 97.5259Z" fill="white"/>
<mask id="mask2_677_2040" style="mask-type:luminance" maskUnits="userSpaceOnUse" x="165" y="78" width="40" height="62">
<path d="M204.436 97.5254C204.436 96.9252 201.422 89.9006 196.205 84.8811C190.987 79.8616 180.948 78.6613 177.538 78.8591C174.128 79.0568 172.519 80.6664 172.519 80.6664C172.519 80.6664 168.911 93.9176 167.104 98.5348C165.667 102.511 165.614 106.855 166.954 110.865C168.203 114.432 169.869 117.838 171.919 121.013C174.933 125.828 174.933 139.08 174.933 139.08C174.933 139.08 189.985 132.26 191.792 129.845C193.599 127.431 192.59 119.008 193.395 114.991C193.56 114.173 193.802 113.371 194.118 112.598C195.092 111.535 195.868 110.306 196.409 108.969C196.409 108.969 204.436 98.1528 204.436 97.5254Z" fill="white"/>
</mask>
<g mask="url(#mask2_677_2040)">
<path d="M199.935 89.2526L195.509 88.9866C194.267 94.6836 192.672 100.298 190.735 105.798C187.932 113.361 184.01 117.842 180.089 119.247C176.167 120.652 171.687 118.688 173.364 120.925C174.36 122.255 180.403 127.936 187.134 133.03C189.391 131.775 191.226 130.609 191.778 129.866C193.586 127.458 192.576 119.029 193.381 115.012C193.546 114.193 193.788 113.391 194.104 112.618C195.078 111.555 195.855 110.326 196.396 108.99C196.396 108.99 204.423 98.1527 204.423 97.5457C204.436 97.1092 202.827 93.2559 199.935 89.2526Z" fill="#FF9800"/>
<path opacity="0.5" d="M199.935 89.2526L195.509 88.9866C194.267 94.6836 192.672 100.298 190.735 105.798C187.932 113.361 184.01 117.842 180.089 119.247C176.167 120.652 171.687 118.688 173.364 120.925C174.36 122.255 180.403 127.936 187.134 133.03C189.391 131.775 191.226 130.609 191.778 129.866C193.586 127.458 192.576 119.029 193.381 115.012C193.546 114.193 193.788 113.391 194.104 112.618C195.078 111.555 195.855 110.326 196.396 108.99C196.396 108.99 204.423 98.1527 204.423 97.5457C204.436 97.1092 202.827 93.2559 199.935 89.2526Z" fill="white"/>
</g>
<path d="M204.436 97.5259C204.436 96.9257 201.422 89.9011 196.205 84.8816C190.987 79.8621 180.948 78.6618 177.538 78.8596C174.128 79.0573 172.519 80.6669 172.519 80.6669C172.519 80.6669 168.911 93.9181 167.104 98.5353C165.667 102.511 165.614 106.856 166.954 110.866C168.203 114.432 169.869 117.839 171.919 121.014C174.933 125.829 174.933 139.08 174.933 139.08C174.933 139.08 189.985 132.26 191.792 129.846C193.599 127.432 192.59 119.009 193.395 114.992C193.56 114.173 193.802 113.371 194.118 112.598C195.092 111.535 195.868 110.306 196.409 108.97C196.409 108.97 204.436 98.1533 204.436 97.5259Z" stroke="#263238" stroke-width="0.779751" stroke-linecap="round" stroke-linejoin="round"/>
<path d="M178.943 92.9363C178.943 92.9363 178.343 95.3437 176.338 96.1417C174.333 96.9396 171.721 96.7487 172.519 98.1536C173.317 99.5585 176.338 100.356 176.338 100.356" stroke="#263238" stroke-width="0.779751" stroke-linecap="round" stroke-linejoin="round"/>
<path d="M173.528 105.376C173.528 105.376 176.938 106.781 178.943 105.778" stroke="#263238" stroke-width="0.779751" stroke-linecap="round" stroke-linejoin="round"/>
<path d="M185.77 94.9409C185.77 94.9409 185.368 98.3509 189.582 97.7508" stroke="#263238" stroke-width="0.779751" stroke-linecap="round" stroke-linejoin="round"/>
<path d="M172.321 91.7288C172.321 91.7288 174.326 94.941 177.136 92.9359" stroke="#263238" stroke-width="0.779751" stroke-linecap="round" stroke-linejoin="round"/>
<path d="M186.773 90.3235C186.773 90.3235 190.387 89.1164 191.99 93.5357" stroke="#263238" stroke-width="0.779751" stroke-linecap="round" stroke-linejoin="round"/>
<path d="M178.943 88.7215C178.943 88.7215 176.536 85.1069 173.126 87.7121" stroke="#263238" stroke-width="0.779751" stroke-linecap="round" stroke-linejoin="round"/>
<path d="M179.148 103.773C179.148 103.773 179.346 106.781 180.948 107.388" stroke="#263238" stroke-width="0.779751" stroke-linecap="round" stroke-linejoin="round"/>
<path d="M197.412 107.585C197.412 107.585 191.792 114.405 187.98 115.612" stroke="#263238" stroke-width="0.779751" stroke-linecap="round" stroke-linejoin="round"/>
<path d="M196.893 92.3289C196.893 92.3289 194.281 95.4456 194.575 98.0781C194.868 100.711 198.926 103.343 200.085 103.343C201.245 103.343 204.436 98.5692 204.436 98.5692C204.436 98.5692 199.826 93.5292 196.893 92.3289Z" fill="#263238" stroke="#263238" stroke-width="0.779751" stroke-linecap="round" stroke-linejoin="round"/>
<path d="M178.984 83.4021C178.984 83.4021 176.727 85.6595 171.277 85.6595C168.192 85.6836 165.111 85.4325 162.07 84.9093C162.07 84.9093 174.285 81.9017 178.984 83.4021Z" fill="#263238" stroke="#263238" stroke-width="0.779751" stroke-linecap="round" stroke-linejoin="round"/>
<path d="M140.881 119.302C141.563 121.845 143.175 124.04 145.397 125.452C147.619 126.864 150.29 127.392 152.883 126.93C155.475 126.468 157.799 125.05 159.397 122.957C160.995 120.864 161.749 118.248 161.511 115.626L140.881 119.302Z" fill="white"/>
<mask id="mask3_677_2040" style="mask-type:luminance" maskUnits="userSpaceOnUse" x="140" y="115" width="22" height="13">
<path d="M140.881 119.302C141.563 121.845 143.175 124.04 145.397 125.452C147.619 126.864 150.29 127.392 152.883 126.93C155.475 126.468 157.799 125.05 159.397 122.957C160.995 120.864 161.749 118.248 161.511 115.626L140.881 119.302Z" fill="white"/>
</mask>
<g mask="url(#mask3_677_2040)">
<path opacity="0.42" d="M140.881 119.302C141.563 121.845 143.175 124.04 145.397 125.452C147.619 126.864 150.29 127.392 152.883 126.93C155.475 126.468 157.799 125.05 159.397 122.957C160.995 120.864 161.749 118.248 161.511 115.626L140.881 119.302Z" fill="black"/>
</g>
<path d="M140.881 119.302C141.563 121.845 143.175 124.04 145.397 125.452C147.619 126.864 150.29 127.392 152.883 126.93C155.475 126.468 157.799 125.05 159.397 122.957C160.995 120.864 161.749 118.248 161.511 115.626L140.881 119.302Z" stroke="#263238" stroke-width="0.779751" stroke-linecap="round" stroke-linejoin="round"/>
<path d="M128.052 92.07C128.721 90.7896 129.105 89.3798 129.178 87.9371C129.178 85.8911 128.427 82.4811 127.302 82.863C126.177 83.245 126.177 86.0548 126.361 86.996C126.442 87.8143 126.379 88.6405 126.177 89.4375C126.177 89.4375 125.236 91.1289 125.986 92.4451C126.736 93.7614 128.052 92.07 128.052 92.07Z" fill="white" stroke="#263238" stroke-width="0.779751" stroke-linecap="round" stroke-linejoin="round"/>
<path d="M140.881 119.302L120.516 75.5999C120.395 75.3419 120.225 75.1103 120.014 74.9184C119.804 74.7266 119.557 74.5782 119.289 74.4819C119.021 74.3855 118.737 74.3431 118.452 74.3571C118.168 74.3711 117.889 74.4411 117.631 74.5632C117.372 74.6856 117.139 74.8587 116.947 75.0723C116.755 75.2859 116.608 75.5356 116.514 75.8069C116.42 76.0782 116.381 76.3655 116.4 76.6521C116.418 76.9386 116.494 77.2185 116.622 77.4754L117.515 79.269" stroke="#263238" stroke-width="0.779751" stroke-linecap="round" stroke-linejoin="round"/>
<path d="M120.346 85.0933C120.346 85.0933 120.346 87.3507 121.287 87.9168C122.228 88.4829 127.111 91.3268 127.302 89.6082C127.493 87.8895 123.892 85.6594 122.794 85.0933C121.696 84.5273 121.287 84.7182 120.346 85.0933Z" stroke="#263238" stroke-width="0.779751" stroke-linecap="round" stroke-linejoin="round"/>
<path d="M121.287 87.9165C121.287 87.9165 118.279 93.9249 118.279 96.5574V106.521C118.279 106.521 106.631 118.736 106.065 121.928C105.499 125.12 104.019 132.84 106.065 132.84C108.111 132.84 117.72 123.626 118.47 121.751C119.22 119.875 123.728 107.469 123.728 107.469C124.106 106.861 124.547 106.294 125.045 105.778C125.795 105.021 125.986 100.138 125.986 100.138C125.986 100.138 128.032 99.947 128.032 98.8217V92.0699C128.052 90.5422 121.287 87.9165 121.287 87.9165Z" fill="white"/>
<mask id="mask4_677_2040" style="mask-type:luminance" maskUnits="userSpaceOnUse" x="105" y="87" width="24" height="46">
<path d="M121.287 87.9158C121.287 87.9158 118.279 93.9242 118.279 96.5567V106.521C118.279 106.521 106.631 118.735 106.065 121.927C105.499 125.119 104.019 132.839 106.065 132.839C108.111 132.839 117.72 123.625 118.47 121.75C119.22 119.874 123.728 107.469 123.728 107.469C124.106 106.86 124.547 106.293 125.045 105.777C125.795 105.02 125.986 100.137 125.986 100.137C125.986 100.137 128.032 99.9462 128.032 98.8209V92.0691C128.052 90.5415 121.287 87.9158 121.287 87.9158Z" fill="white"/>
</mask>
<g mask="url(#mask4_677_2040)">
<path d="M118.47 121.743C119.22 119.861 123.728 107.462 123.728 107.462C124.106 106.853 124.547 106.286 125.045 105.771C125.795 105.014 125.986 100.131 125.986 100.131C125.986 100.131 128.032 99.9398 128.032 98.8145V92.0695C128.032 91.7421 127.711 91.3875 127.213 90.9783L125.849 97.1163L120.441 97.6551C121.292 98.9058 121.93 100.288 122.33 101.747C122.876 103.909 122.064 107.694 120.714 111.206C119.439 114.521 106.624 130.091 105.171 131.857C105.328 132.492 105.608 132.88 106.071 132.88C108.131 132.833 117.72 123.619 118.47 121.743Z" fill="#FF9800"/>
<path opacity="0.5" d="M118.47 121.743C119.22 119.861 123.728 107.462 123.728 107.462C124.106 106.853 124.547 106.286 125.045 105.771C125.795 105.014 125.986 100.131 125.986 100.131C125.986 100.131 128.032 99.9398 128.032 98.8145V92.0695C128.032 91.7421 127.711 91.3875 127.213 90.9783L125.849 97.1163L120.441 97.6551C121.292 98.9058 121.93 100.288 122.33 101.747C122.876 103.909 122.064 107.694 120.714 111.206C119.439 114.521 106.624 130.091 105.171 131.857C105.328 132.492 105.608 132.88 106.071 132.88C108.131 132.833 117.72 123.619 118.47 121.743Z" fill="white"/>
</g>
<path d="M121.287 87.9165C121.287 87.9165 118.279 93.9249 118.279 96.5574V106.521C118.279 106.521 106.631 118.736 106.065 121.928C105.499 125.12 104.019 132.84 106.065 132.84C108.111 132.84 117.72 123.626 118.47 121.751C119.22 119.875 123.728 107.469 123.728 107.469C124.106 106.861 124.547 106.294 125.045 105.778C125.795 105.021 125.986 100.138 125.986 100.138C125.986 100.138 128.032 99.947 128.032 98.8217V92.0699C128.052 90.5422 121.287 87.9165 121.287 87.9165Z" stroke="#263238" stroke-width="0.779751" stroke-linecap="round" stroke-linejoin="round"/>
<path d="M125.986 100.131L125.42 98.624L123.544 98.815" stroke="#263238" stroke-width="0.779751" stroke-linecap="round" stroke-linejoin="round"/>
<path d="M120.912 95.4319L127.302 95.616" stroke="#263238" stroke-width="0.779751" stroke-linecap="round" stroke-linejoin="round"/>
<path d="M121.287 91.8586L127.486 93.3659" stroke="#263238" stroke-width="0.779751" stroke-linecap="round" stroke-linejoin="round"/>
<path d="M249.271 168.352C249.271 168.352 232.903 171.168 234.615 174.742L235.181 177.375C235.181 177.375 223.341 192.379 223.901 192.972C224.46 193.565 245.725 206.128 246.454 206.128C247.184 206.128 260.551 182.258 263.368 177.559C266.185 172.86 266.567 168.543 262.993 166.285C259.419 164.028 255.491 161.961 255.491 161.961" fill="white"/>
<mask id="mask5_677_2040" style="mask-type:luminance" maskUnits="userSpaceOnUse" x="223" y="161" width="43" height="46">
<path d="M249.271 168.351C249.271 168.351 232.903 171.168 234.615 174.741L235.181 177.374C235.181 177.374 223.341 192.378 223.901 192.971C224.46 193.565 245.725 206.127 246.454 206.127C247.184 206.127 260.551 182.257 263.368 177.558C266.185 172.859 266.567 168.542 262.993 166.285C259.419 164.027 255.491 161.961 255.491 161.961" fill="white"/>
</mask>
<g mask="url(#mask5_677_2040)">
<path d="M262.993 166.285C259.419 164.027 255.491 161.961 255.491 161.961L253.206 164.314C255.525 166.291 259.481 169.94 259.678 171.911C259.958 174.714 255.757 180.32 255.198 181.459C254.638 182.598 249.592 173.616 244.831 173.616C240.071 173.616 245.036 175.389 247.559 178.145C250.083 180.9 250.403 185.381 248.439 188.184C246.598 190.816 226.751 189.493 230.332 196.961C236.825 200.842 245.943 206.147 246.434 206.147C247.184 206.147 260.531 182.277 263.348 177.578C266.164 172.88 266.567 168.542 262.993 166.285Z" fill="#FF9800"/>
<path opacity="0.5" d="M262.993 166.285C259.419 164.027 255.491 161.961 255.491 161.961L253.206 164.314C255.525 166.291 259.481 169.94 259.678 171.911C259.958 174.714 255.757 180.32 255.198 181.459C254.638 182.598 249.592 173.616 244.831 173.616C240.071 173.616 245.036 175.389 247.559 178.145C250.083 180.9 250.403 185.381 248.439 188.184C246.598 190.816 226.751 189.493 230.332 196.961C236.825 200.842 245.943 206.147 246.434 206.147C247.184 206.147 260.531 182.277 263.348 177.578C266.164 172.88 266.567 168.542 262.993 166.285Z" fill="white"/>
</g>
<path d="M249.271 168.352C249.271 168.352 232.903 171.168 234.615 174.742L235.181 177.375C235.181 177.375 223.341 192.379 223.901 192.972C224.46 193.565 245.725 206.128 246.454 206.128C247.184 206.128 260.551 182.258 263.368 177.559C266.185 172.86 266.567 168.543 262.993 166.285C259.419 164.028 255.491 161.961 255.491 161.961" stroke="#263238" stroke-width="0.779751" stroke-linecap="round" stroke-linejoin="round"/>
<path d="M237.622 176.243C237.622 176.243 243.447 173.992 247.58 178.125C251.713 182.258 252.47 183.949 252.47 183.949C252.324 182.263 251.832 180.625 251.023 179.138C250.215 177.651 249.107 176.347 247.771 175.308" stroke="#263238" stroke-width="0.779751" stroke-linecap="round" stroke-linejoin="round"/>
<path d="M216.01 201.995C216.01 201.995 214.128 204.436 212.252 205.405C209.434 207 207.047 209.256 205.296 211.979C203.038 215.389 200.222 218.37 201.886 219.686C202.859 220.467 204.05 220.926 205.296 221.002C205.296 221.002 206.421 223.635 207.928 223.819C208.676 223.925 209.43 223.989 210.186 224.01C210.186 224.01 211.495 225.326 212.232 225.326H214.148C214.148 225.326 214.898 226.267 216.59 225.326C218.281 224.385 220 218.745 220.538 216.869C221.077 214.994 221.104 211.038 221.104 211.038L223.737 207.28L217.722 201.265L216.01 201.995Z" fill="white"/>
<mask id="mask6_677_2040" style="mask-type:luminance" maskUnits="userSpaceOnUse" x="201" y="201" width="23" height="25">
<path d="M216.01 201.995C216.01 201.995 214.128 204.436 212.252 205.405C209.434 207 207.047 209.256 205.296 211.979C203.038 215.389 200.222 218.37 201.886 219.686C202.859 220.467 204.05 220.926 205.296 221.002C205.296 221.002 206.421 223.635 207.928 223.819C208.676 223.925 209.43 223.989 210.186 224.01C210.186 224.01 211.495 225.326 212.232 225.326H214.148C214.148 225.326 214.898 226.267 216.59 225.326C218.281 224.385 220 218.745 220.538 216.869C221.077 214.994 221.104 211.038 221.104 211.038L223.737 207.28L217.722 201.265L216.01 201.995Z" fill="white"/>
</mask>
<g mask="url(#mask6_677_2040)">
<path d="M216.01 201.995C215.55 202.572 215.056 203.121 214.53 203.639L217.217 209.838C217.217 209.838 215.171 219.795 213.705 222.544C213.111 223.669 211.877 224.099 210.622 224.378C211.067 224.833 211.633 225.152 212.252 225.299H214.148C214.148 225.299 214.898 226.24 216.59 225.299C218.281 224.358 220 218.718 220.538 216.842C221.077 214.967 221.104 211.011 221.104 211.011L223.737 207.253L217.722 201.238L216.01 201.995Z" fill="#FF9800"/>
<path opacity="0.5" d="M216.01 201.995C215.55 202.572 215.056 203.121 214.53 203.639L217.217 209.838C217.217 209.838 215.171 219.795 213.705 222.544C213.111 223.669 211.877 224.099 210.622 224.378C211.067 224.833 211.633 225.152 212.252 225.299H214.148C214.148 225.299 214.898 226.24 216.59 225.299C218.281 224.358 220 218.718 220.538 216.842C221.077 214.967 221.104 211.011 221.104 211.011L223.737 207.253L217.722 201.238L216.01 201.995Z" fill="white"/>
</g>
<path d="M216.01 201.995C216.01 201.995 214.128 204.436 212.252 205.405C209.434 207 207.047 209.256 205.296 211.979C203.038 215.389 200.222 218.37 201.886 219.686C202.859 220.467 204.05 220.926 205.296 221.002C205.296 221.002 206.421 223.635 207.928 223.819C208.676 223.925 209.43 223.989 210.186 224.01C210.186 224.01 211.495 225.326 212.232 225.326H214.148C214.148 225.326 214.898 226.267 216.59 225.326C218.281 224.385 220 218.745 220.538 216.869C221.077 214.994 221.104 211.038 221.104 211.038L223.737 207.28L217.722 201.265L216.01 201.995Z" stroke="#263238" stroke-width="0.779751" stroke-linecap="round" stroke-linejoin="round"/>
<path d="M223.341 190.714C223.341 190.714 245.513 202.369 246.829 203.119C248.146 203.87 248.712 206.127 248.337 208.575C247.962 211.024 250.587 220.231 247.771 220.231C244.954 220.231 232.733 216.473 225.592 212.524C218.451 208.575 214.878 202.751 214.878 202.001C214.878 201.251 223.341 190.714 223.341 190.714Z" fill="#263238" stroke="#263238" stroke-width="0.779751" stroke-linecap="round" stroke-linejoin="round"/>
<path d="M203.236 99.756L208.658 94.3C211.556 91.4015 206.469 85.775 204.627 83.6949C200.308 78.8698 194.84 75.2148 188.73 73.0694C185.027 71.7463 176.979 69.2365 174.94 74.2356L171.325 83.0607C171.325 83.0607 181.16 82.2627 189.589 86.6753C198.019 91.0878 203.236 99.756 203.236 99.756Z" fill="white"/>
<mask id="mask7_677_2040" style="mask-type:luminance" maskUnits="userSpaceOnUse" x="171" y="71" width="39" height="29">
<path d="M203.236 99.756L208.658 94.3C211.556 91.4015 206.469 85.775 204.627 83.6949C200.308 78.8698 194.84 75.2148 188.73 73.0694C185.027 71.7463 176.979 69.2365 174.94 74.2356L171.325 83.0607C171.325 83.0607 181.16 82.2627 189.589 86.6753C198.019 91.0878 203.236 99.756 203.236 99.756Z" fill="white"/>
</mask>
<g mask="url(#mask7_677_2040)">
<path d="M188.723 73.1034C185.579 71.9781 179.291 70.0139 176.222 72.5168C178.698 72.4486 182.606 73.1511 188.498 76.1042C200.829 82.2422 201.108 84.2268 200.262 87.3094C199.915 88.5916 198.312 90.2557 196.552 91.7629C199.102 94.1405 201.347 96.8254 203.236 99.7559L208.658 94.2999C211.556 91.4014 206.469 85.7749 204.627 83.6948C200.303 78.8812 194.832 75.238 188.723 73.1034Z" fill="#FF9800"/>
<path opacity="0.5" d="M188.723 73.1034C185.579 71.9781 179.291 70.0139 176.222 72.5168C178.698 72.4486 182.606 73.1511 188.498 76.1042C200.829 82.2422 201.108 84.2268 200.262 87.3094C199.915 88.5916 198.312 90.2557 196.552 91.7629C199.102 94.1405 201.347 96.8254 203.236 99.7559L208.658 94.2999C211.556 91.4014 206.469 85.7749 204.627 83.6948C200.303 78.8812 194.832 75.238 188.723 73.1034Z" fill="white"/>
</g>
<path d="M203.236 99.756L208.658 94.3C211.556 91.4015 206.469 85.775 204.627 83.6949C200.308 78.8698 194.84 75.2148 188.73 73.0694C185.027 71.7463 176.979 69.2365 174.94 74.2356L171.325 83.0607C171.325 83.0607 181.16 82.2627 189.589 86.6753C198.019 91.0878 203.236 99.756 203.236 99.756Z" stroke="#263238" stroke-width="0.779751" stroke-linecap="round" stroke-linejoin="round"/>
<path d="M197.412 102.771C197.412 102.771 203.632 97.7513 205.439 100.759C207.246 103.767 203.031 107.988 199.819 107.988C196.607 107.988 195.004 106.781 195.004 106.781" fill="white"/>
<mask id="mask8_677_2040" style="mask-type:luminance" maskUnits="userSpaceOnUse" x="195" y="99" width="11" height="9">
<path d="M197.412 102.77C197.412 102.77 203.632 97.7506 205.439 100.758C207.246 103.766 203.031 107.987 199.819 107.987C196.607 107.987 195.004 106.78 195.004 106.78" fill="white"/>
</mask>
<g mask="url(#mask8_677_2040)">
<path d="M197.412 102.77C197.412 102.77 203.632 97.7506 205.439 100.758C207.246 103.766 203.031 107.987 199.819 107.987C196.607 107.987 195.004 106.78 195.004 106.78" fill="#FF9800"/>
<path opacity="0.5" d="M197.412 102.77C197.412 102.77 203.632 97.7506 205.439 100.758C207.246 103.766 203.031 107.987 199.819 107.987C196.607 107.987 195.004 106.78 195.004 106.78" fill="white"/>
</g>
<path d="M197.412 102.771C197.412 102.771 203.632 97.7513 205.439 100.759C207.246 103.767 203.031 107.988 199.819 107.988C196.607 107.988 195.004 106.781 195.004 106.781" stroke="#263238" stroke-width="0.779751" stroke-linecap="round" stroke-linejoin="round"/>
<path d="M50.0656 283.371H270.099" stroke="#263238" stroke-width="0.779751" stroke-linecap="round" stroke-linejoin="round"/>
<path d="M158.688 216.665H92.2678V289.216C92.2678 293.581 107.197 297.12 125.618 297.12C144.038 297.12 158.967 293.581 158.967 289.216L158.688 216.665Z" fill="white"/>
<mask id="mask9_677_2040" style="mask-type:luminance" maskUnits="userSpaceOnUse" x="92" y="216" width="67" height="82">
<path d="M158.688 216.665H92.2678V289.216C92.2678 293.581 107.197 297.12 125.618 297.12C144.038 297.12 158.967 293.581 158.967 289.216L158.688 216.665Z" fill="white"/>
</mask>
<g mask="url(#mask9_677_2040)">
<path opacity="0.42" d="M158.688 216.665H92.2678V289.216C92.2678 293.581 107.197 297.12 125.618 297.12C144.038 297.12 158.967 293.581 158.967 289.216L158.688 216.665Z" fill="black"/>
<path d="M108.063 216.665V295.933C113.139 296.648 118.255 297.038 123.381 297.1V216.665H108.063Z" fill="#263238"/>
<path d="M129.13 216.665V297.072C130.76 297.072 132.363 296.97 133.904 296.875V216.665H129.13Z" fill="#263238"/>
<path d="M136.311 216.665V296.704C137.971 296.568 139.562 296.404 141.085 296.213V216.665H136.311Z" fill="white"/>
</g>
<path d="M158.688 216.665H92.2678V289.216C92.2678 293.581 107.197 297.12 125.618 297.12C144.038 297.12 158.967 293.581 158.967 289.216L158.688 216.665Z" stroke="#263238" stroke-width="0.779751" stroke-linecap="round" stroke-linejoin="round"/>
<path d="M125.618 205.078C117.038 205.078 108.281 205.637 99.9062 207.628C95.2277 208.747 86.7027 211.107 88.6873 217.858C89.5739 220.873 93.0589 222.032 95.7187 222.987C99.0086 224.045 102.39 224.794 105.819 225.224C112.365 226.204 118.978 226.676 125.597 226.636C134.184 226.636 142.947 226.076 151.322 224.078C154.732 223.273 158.954 222.4 161.341 219.625C161.864 219.04 162.263 218.355 162.513 217.611C162.763 216.867 162.859 216.08 162.796 215.298C162.732 214.515 162.509 213.754 162.142 213.061C161.775 212.367 161.27 211.756 160.659 211.263C157.835 209.122 153.914 208.222 150.531 207.465C145.128 206.313 139.64 205.601 134.122 205.337C131.299 205.164 128.464 205.078 125.618 205.078Z" fill="white"/>
<mask id="mask10_677_2040" style="mask-type:luminance" maskUnits="userSpaceOnUse" x="88" y="205" width="75" height="22">
<path d="M125.618 205.078C117.038 205.078 108.281 205.637 99.9062 207.628C95.2277 208.747 86.7027 211.107 88.6873 217.858C89.5739 220.873 93.0589 222.032 95.7187 222.987C99.0086 224.045 102.39 224.794 105.819 225.224C112.365 226.204 118.978 226.676 125.597 226.636C134.184 226.636 142.947 226.076 151.322 224.078C154.732 223.273 158.954 222.4 161.341 219.625C161.864 219.04 162.263 218.355 162.513 217.611C162.763 216.867 162.859 216.08 162.796 215.298C162.732 214.515 162.509 213.754 162.142 213.061C161.775 212.367 161.27 211.756 160.659 211.263C157.835 209.122 153.914 208.222 150.531 207.465C145.128 206.313 139.64 205.601 134.122 205.337C131.299 205.164 128.464 205.078 125.618 205.078Z" fill="white"/>
</mask>
<g mask="url(#mask10_677_2040)">
<path opacity="0.42" d="M125.618 205.078C117.038 205.078 108.281 205.637 99.9062 207.628C95.2277 208.747 86.7027 211.107 88.6873 217.858C89.5739 220.873 93.0589 222.032 95.7187 222.987C99.0086 224.045 102.39 224.794 105.819 225.224C112.365 226.204 118.978 226.676 125.597 226.636C134.184 226.636 142.947 226.076 151.322 224.078C154.732 223.273 158.954 222.4 161.341 219.625C161.864 219.04 162.263 218.355 162.513 217.611C162.763 216.867 162.859 216.08 162.796 215.298C162.732 214.515 162.509 213.754 162.142 213.061C161.775 212.367 161.27 211.756 160.659 211.263C157.835 209.122 153.914 208.222 150.531 207.465C145.128 206.313 139.64 205.601 134.122 205.337C131.299 205.164 128.464 205.078 125.618 205.078Z" fill="black"/>
</g>
<path d="M125.618 205.078C117.038 205.078 108.281 205.637 99.9062 207.628C95.2277 208.747 86.7027 211.107 88.6873 217.858C89.5739 220.873 93.0589 222.032 95.7187 222.987C99.0086 224.045 102.39 224.794 105.819 225.224C112.365 226.204 118.978 226.676 125.597 226.636C134.184 226.636 142.947 226.076 151.322 224.078C154.732 223.273 158.954 222.4 161.341 219.625C161.864 219.04 162.263 218.355 162.513 217.611C162.763 216.867 162.859 216.08 162.796 215.298C162.732 214.515 162.509 213.754 162.142 213.061C161.775 212.367 161.27 211.756 160.659 211.263C157.835 209.122 153.914 208.222 150.531 207.465C145.128 206.313 139.64 205.601 134.122 205.337C131.299 205.164 128.464 205.078 125.618 205.078Z" stroke="#263238" stroke-width="0.779751" stroke-linecap="round" stroke-linejoin="round"/>
<path d="M125.618 221.213C144.017 221.213 158.933 218.041 158.933 214.127C158.933 210.214 144.017 207.042 125.618 207.042C107.218 207.042 92.3019 210.214 92.3019 214.127C92.3019 218.041 107.218 221.213 125.618 221.213Z" fill="white"/>
<mask id="mask11_677_2040" style="mask-type:luminance" maskUnits="userSpaceOnUse" x="92" y="207" width="67" height="15">
<path d="M125.618 221.213C144.017 221.213 158.933 218.04 158.933 214.127C158.933 210.214 144.017 207.041 125.618 207.041C107.218 207.041 92.3019 210.214 92.3019 214.127C92.3019 218.04 107.218 221.213 125.618 221.213Z" fill="white"/>
</mask>
<g mask="url(#mask11_677_2040)">
<path opacity="0.65" d="M125.618 221.213C144.017 221.213 158.933 218.04 158.933 214.127C158.933 210.214 144.017 207.041 125.618 207.041C107.218 207.041 92.3019 210.214 92.3019 214.127C92.3019 218.04 107.218 221.213 125.618 221.213Z" fill="black"/>
</g>
<path d="M125.618 221.213C144.017 221.213 158.933 218.041 158.933 214.127C158.933 210.214 144.017 207.042 125.618 207.042C107.218 207.042 92.3019 210.214 92.3019 214.127C92.3019 218.041 107.218 221.213 125.618 221.213Z" stroke="#263238" stroke-width="0.779751" stroke-linecap="round" stroke-linejoin="round"/>
<path d="M93.0794 236.401C93.0794 236.401 88.1962 228.129 89.6694 225.489C91.1425 222.85 97.7511 225.305 99.6334 227.747C101.516 230.188 103.207 236.961 102.266 237.145C101.325 237.329 99.8243 237.52 99.4424 236.211C99.0605 234.901 97.1918 229.254 96.0324 228.497C94.873 227.74 92.2746 226.247 92.2746 227.938C92.2746 229.629 95.0981 235.44 94.7162 236.395C94.3342 237.349 94.2115 237.527 93.0794 236.401Z" fill="#263238"/>
<path d="M221.93 232.494H168.577V290.771C168.577 294.277 180.573 297.12 195.366 297.12C210.158 297.12 222.155 294.277 222.155 290.771L221.93 232.494Z" fill="white"/>
<mask id="mask12_677_2040" style="mask-type:luminance" maskUnits="userSpaceOnUse" x="168" y="232" width="55" height="66">
<path d="M221.93 232.494H168.577V290.771C168.577 294.277 180.573 297.12 195.366 297.12C210.158 297.12 222.155 294.277 222.155 290.771L221.93 232.494Z" fill="white"/>
</mask>
<g mask="url(#mask12_677_2040)">
<path opacity="0.42" d="M221.93 232.494H168.577V290.771C168.577 294.277 180.573 297.12 195.366 297.12C210.158 297.12 222.155 294.277 222.155 290.771L221.93 232.494Z" fill="black"/>
</g>
<path d="M221.93 232.494H168.577V290.771C168.577 294.277 180.573 297.12 195.366 297.12C210.158 297.12 222.155 294.277 222.155 290.771L221.93 232.494Z" stroke="#263238" stroke-width="0.779751" stroke-linecap="round" stroke-linejoin="round"/>
<path d="M181.269 232.494V296.166C185.337 296.739 189.437 297.054 193.545 297.107V232.494H181.269Z" fill="#263238"/>
<path d="M198.182 232.494V297.086C199.501 297.05 200.783 296.995 202.029 296.923V232.494H198.182Z" fill="#263238"/>
<path d="M203.952 232.494V296.786C205.282 296.677 206.571 296.548 207.799 296.398V232.494H203.952Z" fill="white"/>
<path d="M195.366 223.191C188.471 223.191 181.439 223.641 174.715 225.237C170.95 226.131 164.11 228.027 165.706 233.421C166.388 235.842 169.211 236.77 171.353 237.513C173.991 238.389 176.706 239.014 179.462 239.382C184.726 240.168 190.043 240.546 195.366 240.514C202.261 240.514 209.299 240.064 216.03 238.468C218.758 237.82 222.168 237.104 224.078 234.887C224.498 234.417 224.817 233.866 225.017 233.268C225.218 232.671 225.294 232.038 225.243 231.41C225.191 230.782 225.012 230.171 224.717 229.614C224.422 229.057 224.016 228.565 223.526 228.17C221.261 226.458 218.104 225.735 215.396 225.121C211.055 224.197 206.646 223.624 202.213 223.409C199.935 223.264 197.653 223.191 195.366 223.191Z" fill="white"/>
<mask id="mask13_677_2040" style="mask-type:luminance" maskUnits="userSpaceOnUse" x="165" y="223" width="61" height="18">
<path d="M195.366 223.191C188.471 223.191 181.439 223.641 174.715 225.237C170.95 226.131 164.11 228.027 165.706 233.421C166.388 235.842 169.211 236.77 171.353 237.513C173.991 238.389 176.706 239.014 179.462 239.382C184.726 240.168 190.043 240.546 195.366 240.514C202.261 240.514 209.299 240.064 216.03 238.468C218.758 237.82 222.168 237.104 224.078 234.887C224.498 234.417 224.817 233.866 225.017 233.268C225.218 232.671 225.294 232.038 225.243 231.41C225.191 230.782 225.012 230.171 224.717 229.614C224.422 229.057 224.016 228.565 223.526 228.17C221.261 226.458 218.104 225.735 215.396 225.121C211.055 224.197 206.646 223.624 202.213 223.409C199.935 223.264 197.653 223.191 195.366 223.191Z" fill="white"/>
</mask>
<g mask="url(#mask13_677_2040)">
<path opacity="0.42" d="M195.366 223.191C188.471 223.191 181.439 223.641 174.715 225.237C170.95 226.131 164.11 228.027 165.706 233.421C166.388 235.842 169.211 236.77 171.353 237.513C173.991 238.389 176.706 239.014 179.462 239.382C184.726 240.168 190.043 240.546 195.366 240.514C202.261 240.514 209.299 240.064 216.03 238.468C218.758 237.82 222.168 237.104 224.078 234.887C224.498 234.417 224.817 233.866 225.017 233.268C225.218 232.671 225.294 232.038 225.243 231.41C225.191 230.782 225.012 230.171 224.717 229.614C224.422 229.057 224.016 228.565 223.526 228.17C221.261 226.458 218.104 225.735 215.396 225.121C211.055 224.197 206.646 223.624 202.213 223.409C199.935 223.264 197.653 223.191 195.366 223.191Z" fill="black"/>
</g>
<path d="M195.366 223.191C188.471 223.191 181.439 223.641 174.715 225.237C170.95 226.131 164.11 228.027 165.706 233.421C166.388 235.842 169.211 236.77 171.353 237.513C173.991 238.389 176.706 239.014 179.462 239.382C184.726 240.168 190.043 240.546 195.366 240.514C202.261 240.514 209.299 240.064 216.03 238.468C218.758 237.82 222.168 237.104 224.078 234.887C224.498 234.417 224.817 233.866 225.017 233.268C225.218 232.671 225.294 232.038 225.243 231.41C225.191 230.782 225.012 230.171 224.717 229.614C224.422 229.057 224.016 228.565 223.526 228.17C221.261 226.458 218.104 225.735 215.396 225.121C211.055 224.197 206.646 223.624 202.213 223.409C199.935 223.264 197.653 223.191 195.366 223.191Z" stroke="#263238" stroke-width="0.779751" stroke-linecap="round" stroke-linejoin="round"/>
<path d="M195.366 236.156C210.146 236.156 222.127 233.607 222.127 230.462C222.127 227.316 210.146 224.767 195.366 224.767C180.586 224.767 168.604 227.316 168.604 230.462C168.604 233.607 180.586 236.156 195.366 236.156Z" fill="white"/>
<mask id="mask14_677_2040" style="mask-type:luminance" maskUnits="userSpaceOnUse" x="168" y="224" width="55" height="13">
<path d="M195.366 236.156C210.146 236.156 222.127 233.607 222.127 230.462C222.127 227.316 210.146 224.767 195.366 224.767C180.586 224.767 168.604 227.316 168.604 230.462C168.604 233.607 180.586 236.156 195.366 236.156Z" fill="white"/>
</mask>
<g mask="url(#mask14_677_2040)">
<path opacity="0.65" d="M195.366 236.156C210.146 236.156 222.127 233.607 222.127 230.462C222.127 227.316 210.146 224.767 195.366 224.767C180.586 224.767 168.604 227.316 168.604 230.462C168.604 233.607 180.586 236.156 195.366 236.156Z" fill="black"/>
</g>
<path d="M195.366 236.156C210.146 236.156 222.127 233.607 222.127 230.462C222.127 227.316 210.146 224.767 195.366 224.767C180.586 224.767 168.604 227.316 168.604 230.462C168.604 233.607 180.586 236.156 195.366 236.156Z" stroke="#263238" stroke-width="0.779751" stroke-linecap="round" stroke-linejoin="round"/>
<path d="M169.231 248.351C169.231 248.351 165.303 241.708 166.503 239.594C167.704 237.479 172.996 239.444 174.51 241.401C176.024 243.358 177.375 248.801 176.624 248.951C175.874 249.101 174.66 249.258 174.36 248.2C174.06 247.143 172.546 242.615 171.632 242.008C170.718 241.401 168.611 240.194 168.611 241.558C168.611 242.922 170.882 247.594 170.575 248.378C170.268 249.162 170.139 249.258 169.231 248.351Z" fill="#263238"/>
<path d="M108.233 183.397C108.233 187.625 112.059 187.625 112.059 191.847C112.059 196.068 108.233 196.068 108.233 200.297C108.233 204.525 112.059 204.518 112.059 208.747C112.059 212.975 108.233 212.975 108.233 217.197" stroke="#263238" stroke-width="0.779751" stroke-linecap="round" stroke-linejoin="round"/>
<path d="M112.059 174.954C112.059 177.613 110.539 178.595 109.413 180.021" stroke="#263238" stroke-width="0.779751" stroke-linecap="round" stroke-linejoin="round"/>
<path d="M126.034 183.076C126.034 186.486 122.208 186.486 122.208 189.896C122.208 193.306 126.034 193.306 126.034 196.716C126.034 200.126 122.208 200.126 122.208 203.536C122.208 206.946 126.034 206.946 126.034 210.356C126.034 213.766 122.208 213.766 122.208 217.176" stroke="#263238" stroke-width="0.779751" stroke-linecap="round" stroke-linejoin="round"/>
<path d="M140.008 174.954C140.008 179.175 136.182 179.175 136.182 183.397C136.182 187.618 140.008 187.625 140.008 191.847C140.008 196.068 136.182 196.068 136.182 200.297C136.182 204.525 140.008 204.518 140.008 208.747C140.008 212.975 136.182 212.975 136.182 217.197" stroke="#263238" stroke-width="0.779751" stroke-linecap="round" stroke-linejoin="round"/>
<path d="M185.088 209.845C185.4 210.427 185.555 211.081 185.538 211.741C185.538 214.919 182.653 214.919 182.653 218.104C182.653 221.289 185.538 221.289 185.538 224.474C185.538 227.659 182.653 227.666 182.653 230.851" stroke="#263238" stroke-width="0.779751" stroke-linecap="round" stroke-linejoin="round"/>
<path d="M196.075 205.125C196.075 207.696 193.19 207.696 193.19 210.267C193.19 212.838 196.075 212.838 196.075 215.409C196.075 217.98 193.19 217.98 193.19 220.558C193.19 223.136 196.075 223.13 196.075 225.701C196.075 228.272 193.19 228.272 193.19 230.85" stroke="#263238" stroke-width="0.779751" stroke-linecap="round" stroke-linejoin="round"/>
<path d="M205.282 214.83C204.532 215.662 203.747 216.453 203.747 218.11C203.747 221.295 206.632 221.295 206.632 224.48C206.632 227.665 203.747 227.672 203.747 230.857" stroke="#263238" stroke-width="0.779751" stroke-linecap="round" stroke-linejoin="round"/>
</svg>
