<svg width="375" height="375" viewBox="0 0 375 375" fill="none" xmlns="http://www.w3.org/2000/svg">
<path d="M187.5 320.67C267.812 320.67 332.918 316.869 332.918 312.18C332.918 307.491 267.812 303.69 187.5 303.69C107.188 303.69 42.0825 307.491 42.0825 312.18C42.0825 316.869 107.188 320.67 187.5 320.67Z" fill="#F5F5F5"/>
<path d="M104.797 312.18H101.797" stroke="#FF9800" stroke-width="0.75" stroke-linecap="round" stroke-linejoin="round"/>
<path d="M96.1275 312.18H19.515" stroke="#FF9800" stroke-width="0.75" stroke-linecap="round" stroke-linejoin="round" stroke-dasharray="5.67 5.67"/>
<path d="M16.68 312.18H13.68" stroke="#FF9800" stroke-width="0.75" stroke-linecap="round" stroke-linejoin="round"/>
<path d="M283.317 132.654L196.779 134.089L197.815 196.563L284.353 195.128L283.317 132.654Z" fill="#FF9800"/>
<path opacity="0.3" d="M249.014 133.214L196.694 134.082L197.73 196.556L250.05 195.688L249.014 133.214Z" fill="white"/>
<path opacity="0.3" d="M256.898 137.425L241.831 137.726L241.915 141.926L256.982 141.625L256.898 137.425Z" fill="white"/>
<path opacity="0.3" d="M257.346 186.005L242.28 186.255L242.35 190.454L257.415 190.204L257.346 186.005Z" fill="white"/>
<path d="M267.39 172.643C272.274 172.643 276.232 168.164 276.232 162.638C276.232 157.113 272.274 152.633 267.39 152.633C262.506 152.633 258.547 157.113 258.547 162.638C258.547 168.164 262.506 172.643 267.39 172.643Z" stroke="white" stroke-width="0.75" stroke-miterlimit="10"/>
<path d="M267.758 154.155V155.835" stroke="white" stroke-width="0.75" stroke-linecap="round" stroke-linejoin="round"/>
<path d="M268.14 169.545V171.225" stroke="white" stroke-width="0.75" stroke-linecap="round" stroke-linejoin="round"/>
<path d="M259.935 162.308H261.622" stroke="white" stroke-width="0.75" stroke-linecap="round" stroke-linejoin="round"/>
<path d="M273.48 162.316H275.167" stroke="white" stroke-width="0.75" stroke-linecap="round" stroke-linejoin="round"/>
<path d="M267.75 162.308L267.757 157.133" stroke="white" stroke-width="0.375" stroke-linecap="round" stroke-linejoin="round"/>
<path d="M268.08 162.645L271.74 166.305" stroke="white" stroke-width="0.375" stroke-linecap="round" stroke-linejoin="round"/>
<path d="M268.568 162.315C268.568 162.477 268.52 162.635 268.43 162.769C268.34 162.904 268.212 163.008 268.063 163.07C267.913 163.132 267.749 163.148 267.591 163.117C267.432 163.085 267.286 163.007 267.172 162.893C267.058 162.779 266.98 162.633 266.948 162.475C266.917 162.316 266.933 162.152 266.995 162.002C267.057 161.853 267.161 161.725 267.296 161.635C267.43 161.546 267.588 161.498 267.75 161.498C267.858 161.497 267.964 161.517 268.064 161.558C268.164 161.599 268.254 161.659 268.33 161.735C268.406 161.811 268.467 161.901 268.507 162.001C268.548 162.101 268.569 162.207 268.568 162.315Z" fill="white"/>
<path opacity="0.3" d="M267.39 175.29C273.856 175.29 279.098 169.625 279.098 162.637C279.098 155.65 273.856 149.985 267.39 149.985C260.924 149.985 255.683 155.65 255.683 162.637C255.683 169.625 260.924 175.29 267.39 175.29Z" fill="white"/>
<path d="M170.16 272.362C171.465 273.36 197.663 270.54 190.89 224.062C190.89 224.062 203.317 227.22 204.652 227.01C204.652 227.01 222.885 254.963 209.61 268.808C196.335 282.653 176.55 283.5 176.55 283.5L170.16 272.362Z" fill="#FF9800"/>
<path opacity="0.3" d="M170.16 272.362C171.465 273.36 197.663 270.54 190.89 224.062C190.89 224.062 203.317 227.22 204.652 227.01C204.652 227.01 222.885 254.963 209.61 268.808C196.335 282.653 176.55 283.5 176.55 283.5L170.16 272.362Z" fill="black"/>
<path d="M199.192 231.255C199.26 231.255 191.872 231.398 189.397 228.323C186.922 225.248 185.25 219.75 189.75 216C194.25 212.25 220.672 196.05 233.115 194.775C245.557 193.5 258.877 201.525 258.877 201.525L242.587 213.57L207.51 222.06L199.192 231.255Z" fill="#263238"/>
<path d="M175.305 265.043L175.987 271.763L184.058 271.08L182.842 264.173L175.305 265.043Z" fill="#FFC3BD"/>
<path d="M173.737 271.275L185.445 271.11L186.277 277.02C186.277 277.02 175.312 277.17 170.805 276.57C166.297 275.97 167.002 273.623 167.002 273.623C167.002 273.623 172.282 273.75 173.737 271.275Z" fill="#263238"/>
<path d="M275.908 288.285C277.657 271.105 267.285 255.978 252.742 254.499C238.2 253.019 224.993 265.746 223.245 282.926C221.497 300.106 231.869 315.233 246.412 316.713C260.954 318.192 274.16 305.465 275.908 288.285Z" fill="#263238"/>
<path d="M231.18 189.968C231.18 189.968 232.395 217.845 216.18 218.64C199.965 219.435 182.542 217.658 182.542 217.658L187.65 267.75L172.447 268.688C172.447 268.688 161.535 226.193 159.817 215.513C158.1 204.833 159.593 197.28 170.865 192.54C182.138 187.8 231.18 189.968 231.18 189.968Z" fill="#FF9800"/>
<path d="M140.437 278.416L160.635 219.751L187.635 189.946C187.635 189.946 164.07 190.036 152.745 196.546C141.42 203.056 141 210.878 138.922 220.186C136.845 229.493 128.512 273.548 128.512 273.548L140.437 278.416Z" fill="#FF9800"/>
<path opacity="0.7" d="M231.18 189.967C231.18 189.967 206.085 188.85 187.68 189.967C187.68 189.967 164.115 190.057 152.79 196.567C141.465 203.077 141 210.877 138.922 220.185C136.845 229.492 128.513 273.547 128.513 273.547L140.438 278.415L160.635 219.75C164.032 236.01 172.447 268.657 172.447 268.657L187.65 267.75L182.535 217.687C182.535 217.687 199.95 219.465 216.173 218.67C232.395 217.875 231.18 189.967 231.18 189.967Z" fill="black"/>
<path d="M189.75 144.75L180.428 145.882C180.428 145.882 178.807 163.02 177.3 166.35C177.3 166.35 148.627 170.288 136.882 169.95L130.92 174L130.71 181.042L136.553 181.215L138.435 176.752C138.435 176.752 142.38 176.58 143.295 174.36C143.295 174.36 173.76 181.717 184.98 173.317C184.995 173.325 191.76 163.388 189.75 144.75Z" fill="#FFC3BD"/>
<path d="M216.465 98.8579C216.465 98.8579 219.382 102.608 218.272 105.855C217.966 106.782 217.426 107.613 216.705 108.27C215.984 108.927 215.106 109.387 214.155 109.605C214.155 109.605 213.607 114.803 210.54 114.953C207.472 115.103 208.5 103.5 208.5 103.5L216.465 98.8579Z" fill="#263238"/>
<path d="M192.847 190.095L190.8 156.593L178.095 148.148C178.095 148.148 182.25 133.5 190.2 131.018C198.15 128.535 215.49 122.843 226.005 125.67C236.52 128.498 235.312 140.903 233.505 150.105L231.48 150.585C231.48 150.585 231.165 186.848 231.15 189.968L192.847 190.095Z" fill="#263238"/>
<path d="M215.707 127.74C211.545 131.768 203.055 134.168 200.707 132.165C198.36 130.163 201.323 128.325 203.528 126.06C204.72 124.815 204.683 122.483 204.405 120.623C204.259 119.685 204.043 118.76 203.76 117.855C195.967 117.428 192.735 113.783 192.412 107.355C192.09 100.928 195 93.465 195 93.465L200.505 88.77C200.505 88.77 208.005 89.895 214.005 94.02C217.575 96.45 216.518 101.235 215.04 104.768C214.414 106.271 213.661 107.719 212.79 109.095C211.95 117.893 215.707 127.74 215.707 127.74Z" fill="#FFC3BD"/>
<path d="M196.747 109.126C196.747 109.126 199.747 109.268 201.06 107.408" stroke="#263238" stroke-width="0.75" stroke-linecap="round" stroke-linejoin="round"/>
<path d="M201.525 101.535C201.525 102.105 201.18 102.555 200.775 102.548C200.37 102.54 200.077 102.068 200.092 101.498C200.107 100.928 200.437 100.478 200.842 100.485C201.247 100.493 201.547 100.965 201.525 101.535Z" fill="#263238"/>
<path d="M194.685 101.716C194.685 102.286 194.34 102.736 193.935 102.728C193.53 102.721 193.237 102.248 193.252 101.678C193.267 101.108 193.597 100.658 194.002 100.666C194.407 100.673 194.707 101.153 194.685 101.716Z" fill="#263238"/>
<path d="M197.062 106.372L196.755 101.775L194.558 106.14C194.901 106.431 195.325 106.61 195.773 106.652C196.222 106.693 196.672 106.596 197.062 106.372Z" fill="#ED847E"/>
<path d="M201.165 97.9353C201.74 97.7772 202.353 97.8284 202.894 98.0797C203.435 98.331 203.87 98.7662 204.12 99.3078" stroke="#263238" stroke-width="0.75" stroke-linecap="round" stroke-linejoin="round"/>
<path d="M192.57 98.7835C192.57 98.7835 193.95 97.2835 195.57 97.666" stroke="#263238" stroke-width="0.75" stroke-linecap="round" stroke-linejoin="round"/>
<path d="M215.092 104.768C206.512 105.076 205.447 95.3482 205.447 95.3482C201.202 97.5982 195.03 93.4732 195.03 93.4732L200.535 88.7632C200.535 88.7632 208.035 89.9032 214.035 94.0132C217.627 96.4507 216.57 101.251 215.092 104.768Z" fill="#263238"/>
<path d="M192.27 96.3226C192.27 96.3226 187.83 93.3676 189.788 91.2376C191.745 89.1076 203.738 93.1576 212.7 98.1226C212.7 98.1226 192.173 84.3901 186.593 88.7326C181.98 92.3251 192.21 97.3126 191.903 97.3051L192.27 96.3226Z" fill="#FF9800"/>
<path d="M217.312 95.3176C217.3 96.8728 217.005 98.4127 216.442 99.8626L196.282 90.1126C197.118 89.1482 198.118 88.3405 199.237 87.7276C200.431 87.0451 201.728 86.5637 203.077 86.3026C204.509 86.029 205.973 85.9784 207.42 86.1526C214.792 87.0001 217.35 92.6701 217.312 95.3176Z" fill="#FF9800"/>
<path d="M171 184.995C169.688 186.368 152.715 182.85 149.752 184.425C148.5 185.085 147.952 187.425 146.692 189.99C144.975 193.478 141.922 197.303 133.942 197.558C120.082 198 121.755 183.938 120.66 179.37C120.66 179.37 107.535 176.978 106.845 174.675C106.155 172.373 107.003 172.028 107.003 172.028C107.003 172.028 123.195 175.028 126.33 170.933C126.937 170.34 127.649 169.864 128.43 169.53C130.23 168.739 132.165 168.304 134.13 168.248C139.837 167.948 146.798 169.553 148.748 173.168C152.708 180.54 169.688 178.883 171.248 180.818C172.808 182.753 172.312 183.623 171 184.995Z" fill="#FF9800"/>
<path d="M128.032 194.603C128.032 194.603 105.262 226.103 124.012 274.591" stroke="#263238" stroke-width="0.75" stroke-linecap="round" stroke-linejoin="round"/>
<path d="M158.085 210.968C158.085 210.968 158.085 211.028 158.085 211.148C158.085 211.268 158.085 211.336 158.085 211.471V211.546C157.814 214.579 157.313 217.588 156.585 220.546C155.55 224.918 154.177 229.081 153.045 232.426C148.245 246.638 148.8 261.953 148.8 261.953C147.21 259.973 144.3 258.563 140.662 257.573C127.417 253.936 104.932 255.886 104.932 255.886C100.522 240.413 102.097 216.196 106.485 202.636C110.872 189.076 123.037 192.136 123.037 192.136C123.037 192.136 135.877 192.511 137.49 192.338C140.441 191.98 143.428 192.041 146.362 192.518C156.277 194.333 158.662 202.171 158.085 210.968Z" fill="#FF9800"/>
<path d="M256.943 270C234.443 290.31 191.01 292.44 158.693 290.19L140.588 257.618L133.253 244.425L156.818 212.663L158.063 210.99C158.063 210.99 158.063 211.05 158.063 211.17C158.063 211.29 158.063 211.358 158.063 211.493V211.568C157.74 217.23 155.655 262.673 172.313 273.818L172.447 273.915C174.702 275.372 177.317 276.172 180 276.225C210.562 277.11 209.708 237.225 201.938 228.683L254.97 218.025C254.97 218.025 265.44 244.388 256.943 270Z" fill="#FF9800"/>
<path d="M197.955 220.036C197.955 220.036 192.982 224.161 195.547 229.696C198.112 235.231 222.84 224.483 232.575 222.526C242.31 220.568 253.575 218.656 258.42 217.658C263.265 216.661 262.845 202.763 258.885 201.533C254.925 200.303 216.135 207.158 209.7 210.923C205.451 213.504 201.51 216.561 197.955 220.036Z" fill="#263238"/>
<path d="M210.405 108.203C209.932 107.694 209.645 107.039 209.592 106.346C209.539 105.652 209.722 104.961 210.112 104.386C211.312 102.586 213.735 99.7282 216.06 101.866C219.315 104.866 213.757 110.318 211.455 108.998C211.069 108.784 210.716 108.516 210.405 108.203Z" fill="#FFC3BD"/>
<path opacity="0.2" d="M192.27 96.3226C192.27 96.3226 187.83 93.3676 189.788 91.2376C190.658 90.2926 193.26 90.4876 196.777 91.4926C199.039 92.1015 201.255 92.871 203.407 93.7951C206.497 95.1376 209.783 96.8551 212.7 98.1226C212.7 98.1226 192.172 84.3901 186.592 88.7326C181.98 92.3251 191.573 96.9826 191.91 97.2976L192.075 96.6901L192.27 96.3226Z" fill="black"/>
<path d="M194.377 95.0405C194.377 95.0405 189.877 95.7905 192.982 100.636L194.377 95.0405Z" fill="#263238"/>
<path d="M198.69 92.0851C198.69 92.0851 191.902 89.7001 190.012 91.0501C188.122 92.4001 190.102 94.9726 192.262 96.3001L193.995 96.5251L195.015 93.4501L197.655 93.1276L198.69 92.0851Z" fill="#263238"/>
<path opacity="0.3" d="M207.937 88.4182L206.31 90.8257L199.237 87.7507C200.431 87.0682 201.728 86.5868 203.077 86.3257L207.937 88.4182Z" fill="white"/>
<path opacity="0.1" d="M206.362 117.196C205.894 118.441 205.223 119.599 204.375 120.623C204.229 119.686 204.013 118.761 203.73 117.856C204.639 117.792 205.531 117.569 206.362 117.196Z" fill="black"/>
<path d="M139.125 183.15C138.825 188.348 136.575 192.6 133.815 193.65C133.337 193.834 132.826 193.914 132.315 193.883C128.91 193.688 126.435 188.58 126.78 182.483C127.125 176.385 130.17 171.6 133.575 171.795C134.963 171.87 136.185 172.763 137.138 174.195C138.54 176.25 139.328 179.535 139.125 183.15Z" fill="#F5F5F5"/>
<path d="M139.125 183.15C138.825 188.348 136.575 192.6 133.815 193.65C130.665 193.47 128.377 188.753 128.7 183.15C129.022 177.548 131.827 173.1 134.977 173.28C135.789 173.341 136.557 173.671 137.16 174.218C138.54 176.25 139.327 179.535 139.125 183.15Z" fill="white"/>
<path d="M260.677 256.823C254.88 252.751 232.447 248.753 232.447 248.753C218.82 248.753 206.857 261.016 205.207 277.298C203.857 290.543 209.707 302.566 219.135 308.048C219.135 308.048 219.922 308.378 221.242 308.896C226.237 310.868 238.912 315.646 246.405 316.696" fill="#263238"/>
<path opacity="0.3" d="M275.908 288.285C277.657 271.105 267.285 255.978 252.742 254.499C238.2 253.019 224.993 265.746 223.245 282.926C221.497 300.106 231.869 315.233 246.412 316.713C260.954 318.192 274.16 305.465 275.908 288.285Z" fill="black"/>
<path d="M159.314 287.285C161.062 270.105 150.69 254.978 136.148 253.499C121.605 252.019 108.399 264.746 106.651 281.926C104.903 299.106 115.275 314.233 129.817 315.713C144.36 317.192 157.566 304.465 159.314 287.285Z" fill="#263238"/>
<path d="M149.16 259.231L135.75 315.533C133.794 315.85 131.804 315.908 129.832 315.706H129.682C127.11 315.046 128.257 315.758 125.677 314.903C119.115 312.736 109.582 308.903 109.582 308.903C99.4799 303.991 93.7724 292.043 95.1599 278.393C96.8399 261.856 108.705 249.503 122.67 250.516C122.67 250.516 129.3 251.738 136.125 253.516C139.125 254.266 142.125 255.158 144.592 256.088C146.226 256.964 147.758 258.018 149.16 259.231Z" fill="#263238"/>
<path opacity="0.3" d="M159.315 287.25C157.815 302.062 147.787 313.56 135.735 315.503C133.779 315.82 131.789 315.877 129.818 315.675H129.668C126.921 315.379 124.253 314.583 121.793 313.327C111.66 308.19 105.248 295.71 106.65 281.91C108.398 264.743 121.575 252.03 136.11 253.485H136.148C139.099 253.783 141.963 254.657 144.578 256.057C146.212 256.936 147.743 257.992 149.145 259.207C156.323 265.447 160.5 275.917 159.315 287.25Z" fill="black"/>
<path d="M155.662 267.526C155.223 266.824 154.721 266.164 154.162 265.553C150.81 260.978 143.145 259.268 138.127 259.673C134.281 260.049 130.588 261.373 127.38 263.528C123.72 265.898 121.102 269.528 117.472 272.018C110.587 276.773 100.14 276.638 93.225 271.741C92.835 271.463 92.4642 271.16 92.115 270.833C91.4102 270.1 90.9402 269.173 90.765 268.171C90.5004 266.92 90.5966 265.619 91.0425 264.421C92.5425 260.206 97.545 256.501 100.702 254.243C107.104 249.727 114.633 247.076 122.452 246.586C144.75 245.048 154.26 264.091 155.662 267.526Z" fill="#FF9800"/>
<path opacity="0.3" d="M154.117 268.125C149.325 261.21 143.175 259.268 138.157 259.673C134.311 260.048 130.618 261.373 127.41 263.528C123.75 265.898 121.132 269.528 117.502 272.018C110.617 276.773 100.17 276.638 93.255 271.74C92.865 271.463 92.4942 271.16 92.145 270.833C91.4403 270.099 90.9702 269.172 90.795 268.17C90.5304 266.919 90.6267 265.619 91.0725 264.42C93.39 267.098 100.14 273.548 109.282 270.42C120.682 266.483 123.465 254.783 135.652 254.888C145.335 255 151.297 262.5 154.117 268.125Z" fill="black"/>
<g opacity="0.3">
<path d="M103.965 252.18C107.217 249.869 110.876 248.192 114.75 247.237C118.628 246.25 122.643 245.921 126.63 246.262C130.61 246.646 134.508 247.637 138.188 249.202L139.553 249.802L140.888 250.47C141.788 250.89 142.635 251.415 143.505 251.895C144.375 252.375 145.178 252.967 146.01 253.5C146.843 254.032 147.623 254.655 148.418 255.247C145.147 253.056 141.655 251.213 138 249.75C134.352 248.286 130.508 247.369 126.593 247.027C122.685 246.654 118.743 246.907 114.915 247.777C112.993 248.203 111.11 248.785 109.283 249.517C107.428 250.231 105.648 251.123 103.965 252.18Z" fill="black"/>
</g>
<g opacity="0.3">
<path d="M128.25 246.817C127.315 243.69 126.753 240.462 126.578 237.202C126.33 233.955 126.278 230.692 126.345 227.452C126.413 224.212 126.638 220.942 126.938 217.702L127.485 212.857C127.725 211.245 127.935 209.632 128.235 208.027L127.553 217.777L127.283 222.637C127.238 224.257 127.14 225.877 127.133 227.497C127.005 230.737 127.065 233.977 127.185 237.247C127.238 238.867 127.365 240.48 127.53 242.092C127.662 243.682 127.902 245.261 128.25 246.817Z" fill="black"/>
</g>
<path opacity="0.3" d="M172.275 273.751C156.615 263.678 155.992 237.691 156.525 220.546C156.622 217.598 156.743 214.921 156.833 212.618C156.997 210.314 156.997 208 156.833 205.696C155.25 193.921 146.25 192.503 146.25 192.503H146.288C156.255 194.333 158.64 202.171 158.062 210.968C158.062 210.968 158.062 211.028 158.062 211.148C158.062 211.268 158.062 211.336 158.062 211.471V211.546C157.725 217.208 155.64 262.651 172.275 273.751Z" fill="black"/>
<path opacity="0.2" d="M171 184.995C169.687 186.368 152.715 182.85 149.752 184.425C148.5 185.085 147.952 187.425 146.692 189.99C143.152 195.615 138.173 196.5 137.865 196.545C143.805 192.045 145.463 181.215 142.515 174.368C139.568 167.52 129.015 169.298 128.415 169.5C130.215 168.709 132.15 168.273 134.115 168.218C139.823 167.918 146.782 169.523 148.732 173.138C152.692 180.51 169.672 178.853 171.232 180.788C172.792 182.723 172.312 183.623 171 184.995Z" fill="black"/>
<path d="M157.71 178.448C156.678 180.353 156.267 182.531 156.532 184.681L170.91 186.301C171.645 185.45 172.188 184.451 172.503 183.372C172.817 182.292 172.895 181.158 172.732 180.046C172.732 180.046 158.49 178.613 157.71 178.448Z" fill="#263238"/>
<path d="M114.053 177.915C114.053 177.915 112.62 174.87 114.338 172.943C110.498 172.598 108.12 172.193 105.645 171.833C105.278 172.95 105.098 174.023 106.395 175.725C107.693 177.428 114.053 177.915 114.053 177.915Z" fill="#263238"/>
<path d="M106.065 196.973C103.575 201.031 101.445 207.526 101.257 217.898" stroke="#FF9800" stroke-width="0.75" stroke-linecap="round" stroke-linejoin="round"/>
<path d="M114.262 190.283C112.451 190.703 110.786 191.602 109.44 192.886" stroke="#FF9800" stroke-width="0.75" stroke-linecap="round" stroke-linejoin="round"/>
<path d="M226.11 151.185L216.645 152.34C216.645 152.34 214.995 169.733 213.465 173.115C213.465 173.115 184.357 177.12 172.425 176.768L166.373 180.878L166.163 188.033L172.095 188.205L174.007 183.705C174.007 183.705 178.013 183.533 178.935 181.275C178.935 181.275 209.865 188.775 221.258 180.225C221.25 180.195 228.128 170.108 226.11 151.185Z" fill="#FFC3BD"/>
<path opacity="0.2" d="M149.04 285.001C148.77 294.436 142.59 301.906 135.232 301.696C134.244 301.666 133.264 301.497 132.322 301.193C126.427 299.318 122.182 292.366 122.415 284.228C122.647 276.353 126.99 269.843 132.697 268.036C133.838 267.669 135.032 267.499 136.23 267.533C143.587 267.751 149.317 275.596 149.04 285.001Z" fill="#FAFAFA"/>
<path d="M142.267 285C142.035 293.055 137.767 299.678 132.322 301.215C126.427 299.34 122.182 292.388 122.415 284.25C122.647 276.375 126.99 269.865 132.697 268.058C138.367 269.595 142.5 276.66 142.267 285Z" fill="#263238"/>
<path opacity="0.2" d="M264.6 285.751C264.322 295.186 258.142 302.663 250.792 302.446C249.803 302.42 248.823 302.251 247.882 301.943C241.98 300.068 237.735 293.123 237.975 284.978C238.2 277.111 242.542 270.593 248.25 268.786C249.39 268.419 250.585 268.249 251.782 268.283C259.14 268.501 264.87 276.331 264.6 285.751Z" fill="#FAFAFA"/>
<path d="M257.828 285.75C257.588 293.798 253.328 300.42 247.883 301.958C241.98 300.083 237.735 293.138 237.975 284.993C238.2 277.125 242.543 270.608 248.25 268.8C253.928 270.338 258.068 277.403 257.828 285.75Z" fill="#263238"/>
<path d="M276.195 260.895C276.323 270.173 262.2 276.315 238.567 280.185C232.197 281.305 225.687 281.381 219.293 280.41C208.793 278.678 203.662 274.238 203.662 274.238C203.662 274.238 206.332 242.175 232.755 238.11C250.755 235.35 264.3 242.61 271.17 250.433C274.402 254.108 276.158 257.925 276.195 260.895Z" fill="#FF9800"/>
<path opacity="0.3" d="M276.195 260.895C276.323 270.172 262.2 276.315 238.567 280.185C232.197 281.305 225.687 281.381 219.293 280.41C220.425 271.702 225.51 248.865 247.612 246.495C257.64 245.415 265.38 247.44 271.17 250.432C274.402 254.107 276.158 257.925 276.195 260.895Z" fill="black"/>
<g opacity="0.3">
<path d="M205.193 274.379C205.679 270.015 206.72 265.73 208.29 261.629C209.834 257.486 211.966 253.586 214.62 250.049C215.961 248.291 217.468 246.666 219.12 245.197C220.757 243.704 222.562 242.405 224.498 241.327C228.35 239.155 232.618 237.823 237.023 237.419C234.864 237.781 232.742 238.328 230.678 239.054C229.635 239.369 228.653 239.857 227.678 240.269C226.699 240.738 225.745 241.256 224.82 241.822C223.875 242.362 223.005 243.014 222.113 243.622C221.22 244.229 220.395 244.949 219.608 245.707C218.006 247.162 216.547 248.767 215.25 250.499C212.615 253.968 210.468 257.781 208.868 261.832C208.037 263.85 207.32 265.913 206.723 268.012C206.086 270.102 205.575 272.228 205.193 274.379Z" fill="black"/>
</g>
<path d="M169.732 263.791L171.292 269.086L187.65 267.721L187.867 260.318L169.732 263.791Z" fill="#FF9800"/>
<path d="M267.12 227.677L303.113 226.214" stroke="#FF9800" stroke-width="0.75" stroke-linecap="round" stroke-linejoin="round"/>
<path d="M315.008 219.66L320.355 219.442" stroke="#FF9800" stroke-width="0.75" stroke-linecap="round" stroke-linejoin="round"/>
<path d="M284.37 220.905L310.905 219.825" stroke="#FF9800" stroke-width="0.75" stroke-linecap="round" stroke-linejoin="round"/>
<path d="M302.94 239.535L325.178 238.635" stroke="#FF9800" stroke-width="0.75" stroke-linecap="round" stroke-linejoin="round"/>
<path d="M289.192 240.097L298.883 239.7" stroke="#FF9800" stroke-width="0.75" stroke-linecap="round" stroke-linejoin="round"/>
</svg>
