<svg width="16" height="12" viewBox="0 0 16 12" fill="none" xmlns="http://www.w3.org/2000/svg">
<path d="M9.99496 12.0101H0.261965C0.194794 12.0101 0.134341 11.9832 0.0806045 11.9295C0.0268682 11.8757 0 11.8153 0 11.7481C0 11.1167 0.0100756 10.5626 0.0302267 10.0856C0.0503778 9.60873 0.0806045 9.1822 0.120907 8.80604H6.44836C7.37531 8.80604 8.16457 8.47691 8.81612 7.81864C9.46767 7.16037 9.79345 6.35432 9.79345 5.4005C9.79345 4.71536 9.60202 4.09404 9.21914 3.53652C8.83627 2.97901 8.32242 2.56591 7.67758 2.29723L4.97733 1.22922C5.70277 0.826196 6.46516 0.520571 7.26448 0.312343C8.06381 0.104114 8.89337 0 9.75315 0C11.4727 0 12.9437 0.581024 14.1662 1.74307C15.3888 2.90512 16 4.32578 16 6.00504C16 7.6843 15.419 9.10495 14.2569 10.267C13.0949 11.4291 11.6742 12.0101 9.99496 12.0101ZM0.382872 7.21411C0.651553 6.26028 1.04786 5.36356 1.57179 4.52393C2.09572 3.6843 2.7204 2.94207 3.44584 2.29723L7.07305 3.76826C7.42234 3.91604 7.69773 4.1377 7.89924 4.43325C8.10076 4.7288 8.20151 5.05122 8.20151 5.4005C8.20151 5.911 8.03023 6.34089 7.68766 6.69018C7.34509 7.03946 6.91856 7.21411 6.40806 7.21411H0.382872Z" fill="#FF9800"/>
</svg>
