<svg width="25" height="24" viewBox="0 0 25 24" fill="none" xmlns="http://www.w3.org/2000/svg">
<mask id="mask0_843_466" style="mask-type:alpha" maskUnits="userSpaceOnUse" x="0" y="0" width="25" height="24">
<rect x="0.5" width="24" height="24" fill="#D9D9D9"/>
</mask>
<g mask="url(#mask0_843_466)">
<path d="M6.5 19.0001H9.84625V13.9616C9.84625 13.7056 9.93283 13.4909 10.106 13.3176C10.2793 13.1444 10.494 13.0579 10.75 13.0579H14.25C14.506 13.0579 14.7207 13.1444 14.894 13.3176C15.0672 13.4909 15.1538 13.7056 15.1538 13.9616V19.0001H18.5V10.1539C18.5 10.1027 18.4888 10.0563 18.4663 10.0146C18.4439 9.97295 18.4135 9.93603 18.375 9.90386L12.6828 5.62511C12.6314 5.58028 12.5705 5.55786 12.5 5.55786C12.4295 5.55786 12.3686 5.58028 12.3173 5.62511L6.625 9.90386C6.5865 9.93603 6.55608 9.97295 6.53375 10.0146C6.51125 10.0563 6.5 10.1027 6.5 10.1539V19.0001ZM5 19.0001V10.1539C5 9.8677 5.064 9.59661 5.192 9.34061C5.32017 9.08444 5.49717 8.87353 5.723 8.70786L11.4155 4.41936C11.7313 4.17836 12.0923 4.05786 12.4985 4.05786C12.9047 4.05786 13.2667 4.17836 13.5845 4.41936L19.277 8.70786C19.5028 8.87353 19.6798 9.08444 19.808 9.34061C19.936 9.59661 20 9.8677 20 10.1539V19.0001C20 19.4091 19.8523 19.7614 19.5568 20.0569C19.2613 20.3524 18.909 20.5001 18.5 20.5001H14.5577C14.3016 20.5001 14.0869 20.4134 13.9137 20.2401C13.7404 20.0669 13.6538 19.8523 13.6538 19.5961V14.5579H11.3463V19.5961C11.3463 19.8523 11.2596 20.0669 11.0863 20.2401C10.9131 20.4134 10.6984 20.5001 10.4423 20.5001H6.5C6.091 20.5001 5.73875 20.3524 5.44325 20.0569C5.14775 19.7614 5 19.4091 5 19.0001Z" fill="#19191B"/>
</g>
</svg>
