<svg width="16" height="16" viewBox="0 0 16 16" fill="none" xmlns="http://www.w3.org/2000/svg">
<mask id="mask0_614_1240" style="mask-type:alpha" maskUnits="userSpaceOnUse" x="0" y="0" width="16" height="16">
<rect width="16" height="16" fill="#D9D9D9"/>
</mask>
<g mask="url(#mask0_614_1240)">
<path d="M1.91521 7.97089L5.88051 12.8566C6.01539 13.0228 6.08058 13.2167 6.07608 13.4382C6.07159 13.6598 6.0019 13.8537 5.86703 14.0199C5.73215 14.1861 5.5748 14.2691 5.39497 14.2691C5.21514 14.2691 5.05778 14.1861 4.92291 14.0199L0.768782 8.91812C0.660882 8.78518 0.579958 8.63561 0.526008 8.46943C0.472058 8.30325 0.445084 8.13707 0.445084 7.97089C0.445084 7.80471 0.472058 7.63853 0.526008 7.47235C0.579958 7.30617 0.660882 7.15661 0.768782 7.02366L4.92291 1.90529C5.05778 1.73911 5.21738 1.65879 5.40171 1.66433C5.58604 1.66987 5.74564 1.75573 5.88051 1.92191C6.01539 2.08809 6.08283 2.28197 6.08283 2.50354C6.08283 2.72512 6.01539 2.919 5.88051 3.08518L1.91521 7.97089Z" fill="#FF9800"/>
</g>
</svg>
