<svg width="26" height="26" viewBox="0 0 26 26" fill="none" xmlns="http://www.w3.org/2000/svg">
<path d="M1 5.02797V20.9361H4.16407V7.7013H10.8766C15.7026 8.14246 16.8894 11.3377 16.8795 12.8801C16.7612 16.8218 12.8283 18.1668 10.8766 18.3467V20.9361C18.4586 20.3798 20.1274 15.3337 20.014 12.8801C20.0377 7.5958 14.3956 5.06394 11.2167 5.02797H1Z" fill="#19191B"/>
<path d="M5.89396 1V3.6014L11.2167 3.67333C19.807 4.68032 21.8523 10.2507 21.7439 12.8801C21.5517 20.7919 13.1191 22.5185 9.07282 22.3027V9.04396H5.87917V25H11.2167C22.8971 23.7293 25.099 16.2847 24.9967 12.8801C24.7364 4.21998 15.741 1.17982 11.2167 1H5.89396Z" fill="#19191B"/>
<path d="M1 5.02797V20.9361H4.16407V7.7013H10.8766C15.7026 8.14246 16.8894 11.3377 16.8795 12.8801C16.7612 16.8218 12.8283 18.1668 10.8766 18.3467V20.9361C18.4586 20.3798 20.1274 15.3337 20.014 12.8801C20.0377 7.5958 14.3956 5.06394 11.2167 5.02797H1Z" stroke="#19191B" stroke-width="0.245896" stroke-linejoin="round"/>
<path d="M5.89396 1V3.6014L11.2167 3.67333C19.807 4.68032 21.8523 10.2507 21.7439 12.8801C21.5517 20.7919 13.1191 22.5185 9.07282 22.3027V9.04396H5.87917V25H11.2167C22.8971 23.7293 25.099 16.2847 24.9967 12.8801C24.7364 4.21998 15.741 1.17982 11.2167 1H5.89396Z" stroke="#19191B" stroke-width="0.245896" stroke-linejoin="round"/>
</svg>
