<svg width="12" height="12" viewBox="0 0 12 12" fill="none" xmlns="http://www.w3.org/2000/svg">
<mask id="mask0_603_1052" style="mask-type:alpha" maskUnits="userSpaceOnUse" x="0" y="0" width="12" height="12">
<rect width="12" height="12" fill="#D9D9D9"/>
</mask>
<g mask="url(#mask0_603_1052)">
<path d="M6.00002 8.15005L4.15002 9.56255C4.05835 9.63755 3.95835 9.67297 3.85002 9.6688C3.74168 9.66463 3.64585 9.63338 3.56252 9.57505C3.47918 9.51672 3.4146 9.43755 3.36877 9.33755C3.32293 9.23755 3.32085 9.12922 3.36252 9.01255L4.07502 6.70005L2.26252 5.41255C2.16252 5.34588 2.10002 5.25838 2.07502 5.15005C2.05002 5.04172 2.05418 4.94172 2.08752 4.85005C2.12085 4.75838 2.17918 4.67713 2.26252 4.6063C2.34585 4.53547 2.44585 4.50005 2.56252 4.50005H4.80002L5.52502 2.10005C5.56668 1.98338 5.63127 1.8938 5.71877 1.8313C5.80627 1.7688 5.90002 1.73755 6.00002 1.73755C6.10002 1.73755 6.19377 1.7688 6.28127 1.8313C6.36877 1.8938 6.43335 1.98338 6.47502 2.10005L7.20002 4.50005H9.43752C9.55418 4.50005 9.65418 4.53547 9.73752 4.6063C9.82085 4.67713 9.87918 4.75838 9.91252 4.85005C9.94585 4.94172 9.95002 5.04172 9.92502 5.15005C9.90002 5.25838 9.83752 5.34588 9.73752 5.41255L7.92502 6.70005L8.63752 9.01255C8.67918 9.12922 8.6771 9.23755 8.63127 9.33755C8.58543 9.43755 8.52085 9.51672 8.43752 9.57505C8.35418 9.63338 8.25835 9.66463 8.15002 9.6688C8.04168 9.67297 7.94168 9.63755 7.85002 9.56255L6.00002 8.15005Z" fill="#FF9800"/>
</g>
</svg>
