<svg width="16" height="16" viewBox="0 0 16 16" fill="none" xmlns="http://www.w3.org/2000/svg">
<mask id="mask0_610_1174" style="mask-type:alpha" maskUnits="userSpaceOnUse" x="0" y="0" width="16" height="16">
<rect width="16" height="16" fill="#D9D9D9"/>
</mask>
<g mask="url(#mask0_610_1174)">
<path d="M8.00006 10.8666L5.5334 12.75C5.41117 12.85 5.27784 12.8972 5.1334 12.8917C4.98895 12.8861 4.86117 12.8444 4.75006 12.7667C4.63895 12.6889 4.55284 12.5833 4.49173 12.45C4.43062 12.3166 4.42784 12.1722 4.4834 12.0167L5.4334 8.93332L3.01673 7.21665C2.8834 7.12776 2.80006 7.01109 2.76673 6.86665C2.7334 6.72221 2.73895 6.58887 2.7834 6.46665C2.82784 6.34443 2.90562 6.23609 3.01673 6.14165C3.12784 6.04721 3.26117 5.99998 3.41673 5.99998H6.40006L7.36673 2.79998C7.42229 2.64443 7.5084 2.52498 7.62506 2.44165C7.74173 2.35832 7.86673 2.31665 8.00006 2.31665C8.1334 2.31665 8.2584 2.35832 8.37506 2.44165C8.49173 2.52498 8.57784 2.64443 8.6334 2.79998L9.60006 5.99998H12.5834C12.739 5.99998 12.8723 6.04721 12.9834 6.14165C13.0945 6.23609 13.1723 6.34443 13.2167 6.46665C13.2612 6.58887 13.2667 6.72221 13.2334 6.86665C13.2001 7.01109 13.1167 7.12776 12.9834 7.21665L10.5667 8.93332L11.5167 12.0167C11.5723 12.1722 11.5695 12.3166 11.5084 12.45C11.4473 12.5833 11.3612 12.6889 11.2501 12.7667C11.139 12.8444 11.0112 12.8861 10.8667 12.8917C10.7223 12.8972 10.589 12.85 10.4667 12.75L8.00006 10.8666Z" fill="#757575"/>
</g>
</svg>
