<svg width="16" height="12" viewBox="0 0 16 12" fill="none" xmlns="http://www.w3.org/2000/svg">
<path d="M9.99999 11.3334C8.5111 11.3334 7.24999 10.8167 6.21666 9.78341C5.18332 8.75008 4.66666 7.48897 4.66666 6.00008C4.66666 4.5223 5.18332 3.26397 6.21666 2.22508C7.24999 1.18619 8.5111 0.666748 9.99999 0.666748C11.4778 0.666748 12.7361 1.18619 13.775 2.22508C14.8139 3.26397 15.3333 4.5223 15.3333 6.00008C15.3333 7.48897 14.8139 8.75008 13.775 9.78341C12.7361 10.8167 11.4778 11.3334 9.99999 11.3334ZM11.5167 8.48342L12.4667 7.53341L10.6667 5.73341V3.33341H9.33332V6.28341L11.5167 8.48342ZM1.33332 4.00008V2.66675H3.99999V4.00008H1.33332ZM0.666656 6.66675V5.33342H3.99999V6.66675H0.666656ZM1.33332 9.33342V8.00008H3.99999V9.33342H1.33332Z" fill="#757575"/>
</svg>
